<svg width="24" height="24" viewBox="0 0 24 24" fill="none" xmlns="http://www.w3.org/2000/svg">
<g clip-path="url(#clip0_347_92)">
<path d="M23.4207 5.85717L22.5935 6.68167C22.2885 6.9856 21.964 7.26923 21.6218 7.53135C21.613 7.53812 21.6041 7.54486 21.5953 7.55159C21.5956 7.56352 21.5959 7.57547 21.5962 7.58743C21.599 7.70066 21.6007 7.81556 21.6007 7.93124C21.6007 7.93159 21.6007 7.93195 21.6007 7.9323C21.6002 14.7128 16.4307 21.7848 7.74719 21.7848C5.86432 21.7848 4.01793 21.4041 2.30679 20.6712L23.4207 5.85717ZM23.4207 5.85717C22.9058 6.50505 22.3173 7.08372 21.6634 7.58556L23.4207 5.85717ZM5.37006 14.4226C5.27301 14.449 5.17492 14.4729 5.0761 14.4941C5.03347 14.4391 4.99259 14.3825 4.95355 14.3245C5.01411 14.339 5.07514 14.3525 5.1366 14.3648L5.20626 14.0185L5.25475 14.0081L5.37006 14.4226ZM5.37006 14.4226C5.60802 14.3564 5.77017 14.1356 5.76163 13.8891C5.75414 13.6416 5.57704 13.4335 5.33378 13.3844M5.37006 14.4226L5.25736 14.0076L5.33314 13.9914L5.23207 13.9144L5.2302 13.9075L5.22957 13.9052L5.22926 13.9041L5.33378 13.3844M5.33378 13.3844C4.08002 13.1323 3.04837 12.3233 2.47639 11.2305C2.44472 11.224 2.41309 11.2172 2.38152 11.2101C2.67213 11.7816 3.08939 12.2826 3.60088 12.6721L4.74215 13.5413C4.86388 13.5187 4.98615 13.4906 5.10801 13.4575L5.22905 13.9033L5.33378 13.3844ZM2.54367 3.2047C2.46831 3.11339 2.36587 3.05063 2.2534 3.02377L2.47307 3.26227L2.54367 3.2047ZM2.54367 3.2047L2.47343 3.26266L3.0018 3.83632C4.90943 5.90746 7.44013 7.29593 10.1866 7.79917C10.1851 7.77605 10.1837 7.75293 10.1825 7.72979C7.20466 7.18105 4.484 5.58432 2.54367 3.2047ZM8.00945 17.106C8.07222 17.3151 7.99995 17.5437 7.82723 17.679C7.7467 17.7421 7.66544 17.8038 7.58345 17.8642L6.57819 18.4392L8.00945 17.106ZM8.00945 17.106L7.98157 17.0976L7.50495 16.9545L7.50473 16.9544L6.36934 16.6134C5.706 16.4142 5.10553 16.0568 4.61759 15.5787C4.64608 15.5758 4.67454 15.5726 4.70293 15.5692L8.00945 17.106ZM22.5618 2.56662C22.7318 2.46785 22.9398 2.46966 23.1061 2.56754L22.6629 2.73717L22.5618 2.56662ZM22.5618 2.56662C21.7648 3.03929 20.9112 3.38176 20.0203 3.58556C19.0515 2.66799 17.753 2.14839 16.4119 2.14839C13.6983 2.14839 11.4595 4.22318 11.1986 6.8694C11.2208 6.87186 11.2429 6.87425 11.2651 6.87658C11.5222 4.26286 13.7315 2.21535 16.4119 2.21533C16.4119 2.21533 16.4119 2.21533 16.4119 2.21533C17.7367 2.21533 19.0177 2.7281 19.9745 3.63395C19.9829 3.6419 19.9912 3.64988 19.9996 3.65789C20.0114 3.65524 20.0232 3.65257 20.035 3.64987C20.4413 3.55695 20.8414 3.4344 21.2334 3.28435L22.6613 2.73781L22.5618 2.56662ZM20.2604 5.80164C20.2438 5.75275 20.2346 5.70283 20.2324 5.65324C20.394 5.62034 20.5546 5.58369 20.7141 5.54342L20.7163 5.5471L20.6216 5.67747L20.2604 5.80164ZM20.2604 5.80164C20.2831 5.86754 20.3177 5.92687 20.3611 5.97751C20.3933 5.95318 20.4253 5.92862 20.4571 5.90383L20.6206 5.67887L20.2604 5.80164ZM20.9078 6.8174L20.9174 6.89755L20.9078 6.8174ZM20.9078 6.8174C20.9124 6.81401 20.9169 6.81062 20.9215 6.80723L20.9078 6.8174ZM12.3489 8.33881L12.2451 8.36271L12.1913 7.78238C12.1793 7.65264 12.1732 7.51915 12.1732 7.38712C12.1732 7.38711 12.1732 7.3871 12.1732 7.38709C12.1732 5.05115 14.076 3.14839 16.4119 3.14839C16.4119 3.14839 16.4119 3.14839 16.4119 3.14839C17.4968 3.1484 18.5493 3.56964 19.3327 4.3116L19.5119 4.4814L19.5122 4.48166L19.6323 4.59544C19.6196 4.60938 19.6072 4.62353 19.5951 4.63789C19.5447 4.61076 19.4983 4.57522 19.4581 4.53195C18.6728 3.69544 17.5621 3.21533 16.4119 3.21533C14.1116 3.21533 12.2402 5.08674 12.2402 7.38709C12.2402 7.7061 12.2764 8.02724 12.3489 8.33881ZM12.3489 8.33881L12.2452 8.36297L12.2804 8.74345C12.3558 8.62338 12.3809 8.47759 12.3489 8.33881ZM4.84007 18.1545C4.86926 18.1688 4.89856 18.1829 4.92799 18.1968C4.18445 18.4864 3.4035 18.6746 2.59845 18.7572L0.964347 18.9249C0.904848 18.888 0.845607 18.8507 0.786629 18.8128L4.84007 18.1545ZM6.11508 17.6295C6.09467 17.6412 6.07422 17.6528 6.05373 17.6643L6.0817 17.5711L6.0333 17.4865C6.05577 17.4936 6.07829 17.5005 6.10088 17.5073C6.15073 17.5223 6.20087 17.5365 6.25129 17.55C6.20608 17.5769 6.16068 17.6034 6.11508 17.6295ZM4.97346 17.0166C4.94886 17.0278 4.9242 17.0389 4.89948 17.0499C3.89433 16.4493 3.09792 15.5177 2.67513 14.3778L3.08373 15.1004C3.53688 15.9019 4.19281 16.5598 4.97346 17.0166ZM3.89656 14.6409C3.83976 14.5405 3.78686 14.4374 3.73808 14.3317L3.9608 14.2842L4.45581 14.1786C4.50973 14.1974 4.56409 14.2154 4.61888 14.2324L3.95422 14.6083L3.95163 14.7353C3.93289 14.7041 3.91453 14.6726 3.89656 14.6409ZM4.81466 14.1217C4.8116 14.1159 4.80866 14.1099 4.80585 14.1039L5.2058 14.0186L5.13593 14.3647C5.04162 14.3456 4.95718 14.2977 4.8925 14.2303C4.86914 14.1928 4.84654 14.1547 4.82471 14.1161L4.81466 14.1217ZM5.22752 13.9109L5.22336 13.9078L5.22035 13.9055L4.85531 13.6275C4.91534 13.5477 5.00095 13.4873 5.10205 13.4592L5.22616 13.9053L5.22681 13.9077L5.2276 13.9105L5.22752 13.9109ZM2.07316 10.0876L2.02621 10.2272C2.01681 10.1858 2.00802 10.1441 1.99986 10.1022C1.99452 10.0748 1.98945 10.0474 1.98465 10.0198L2.08023 10.0666L2.10872 10.0805L2.07316 10.0876ZM1.80912 8.94378L1.74363 8.92176L1.85763 8.84457L1.89188 8.77454C1.89904 8.78531 1.90624 8.79604 1.91348 8.80676C1.96552 8.88372 2.01966 8.95932 2.07588 9.03348L1.80912 8.94378ZM2.97278 13.3636C2.99391 13.3803 3.01517 13.3968 3.03656 13.4131C3.11883 13.4761 3.20309 13.5366 3.28926 13.5945L3.0209 13.5891L2.90437 13.5867L2.995 13.4677L2.97278 13.3636ZM1.35427 7.72191C1.33112 7.72419 1.30817 7.72698 1.28545 7.73024C1.0731 7.15546 0.960339 6.53925 0.960339 5.90724C0.960339 5.02964 1.18074 4.16363 1.60147 3.39508L1.32358 4.18009C1.12769 4.73345 1.02728 5.31788 1.02728 5.90724C1.02728 6.537 1.14077 7.15022 1.35427 7.72191ZM2.20324 4.49149C2.21563 4.45645 2.22849 4.42157 2.24181 4.38686C2.26643 4.41402 2.29115 4.44107 2.31597 4.46801C2.34511 4.49965 2.37439 4.53114 2.4038 4.56248L2.26626 4.5138L2.16388 4.60809C2.17643 4.56903 2.18955 4.53016 2.20324 4.49149ZM3.08045 5.32753C3.08526 5.30155 3.0904 5.27563 3.09585 5.24979C5.29334 7.28384 8.10309 8.56365 11.0938 8.86954L11.8052 8.9423L11.8105 8.94284L12.0213 8.9644C11.9527 8.99238 11.8783 9.00383 11.8027 8.99179C8.54663 8.82769 5.45946 7.51627 3.08045 5.32753ZM21.5673 4.15657C21.6424 4.12769 21.7172 4.09788 21.7917 4.06714C21.7904 4.06882 21.7892 4.0705 21.788 4.07218L21.6481 4.26481L21.6223 4.30023L21.5909 4.21827L21.5318 4.17013C21.5437 4.16563 21.5555 4.16111 21.5673 4.15657ZM20.7156 5.54304C20.7171 5.54266 20.7186 5.54228 20.7201 5.5419L20.7173 5.5458L20.7156 5.54304ZM22.6368 4.77487L22.379 4.83418L22.5492 4.62527L22.5743 4.59446L22.597 4.65999L22.7266 4.75419L22.6368 4.77487ZM11.2624 7.86853C11.2649 7.89583 11.2677 7.92311 11.2706 7.95038C11.2433 7.94775 11.216 7.94503 11.1887 7.94223C11.0814 7.93121 10.9744 7.91885 10.8676 7.90515L11.1956 7.87473L11.2404 7.43652C11.2418 7.58041 11.2491 7.72463 11.2624 7.86853ZM1.96834 5.64668C1.98948 5.66776 2.01068 5.68878 2.03194 5.70973C2.02884 5.77545 2.02728 5.84131 2.02728 5.90724C2.02728 7.30709 2.72081 8.60344 3.88163 9.37912C4.0801 9.51144 4.16649 9.75787 4.09394 9.98516C4.06916 10.0624 4.02657 10.1292 3.97222 10.1841L3.76687 9.88076L4.09376 9.9851L3.76643 9.88012L3.65618 9.71729L3.65592 9.7169L3.59312 9.62415L3.60152 9.35695C3.53589 9.35488 3.47033 9.35128 3.4049 9.34616L2.68568 8.28392C2.21986 7.59593 1.96034 6.77101 1.96034 5.90724C1.96034 5.82019 1.96302 5.7333 1.96834 5.64668ZM3.53942 9.54484L3.42543 9.37648C3.46056 9.36476 3.49637 9.35853 3.53233 9.35717L3.53942 9.54484Z" fill="white" stroke="white" stroke-width="2"/>
</g>
<defs>
<clipPath id="clip0_347_92">
<rect width="24" height="24" fill="white"/>
</clipPath>
</defs>
</svg>
