<svg width="47" height="35" viewBox="0 0 47 35" fill="none" xmlns="http://www.w3.org/2000/svg">
<path d="M10.376 18.136C10.632 18.968 10.92 19.64 11.24 20.344L11.304 20.376L11.528 20.856C12.104 22.072 12.744 23.288 13.48 24.44L14.856 26.904C15.08 27.32 15.304 27.64 15.56 28.056L15.528 28.024C15.784 28.408 16.008 28.856 16.264 29.24C16.52 29.624 16.776 30.104 16.872 30.456C17.128 31.416 16.808 32.376 15.912 32.984C15.432 33.304 14.888 33.4 14.376 33.464C13.416 33.528 12.456 33.592 11.688 33.752C11.4 33.848 11.208 33.848 11.08 33.848H10.952C10.056 33.848 9.384 33.528 8.808 32.984L7.688 31.896C7.368 31.672 7.08 31.416 6.824 31.096C6.664 30.904 6.408 30.584 6.312 30.36V30.392C5.32 28.792 4.424 27 3.688 25.112C3.464 24.536 3.24 23.8 3.016 23.224L1.32 18.936L0.712 17.368C0.52 16.92 0.456 16.504 0.456 16.056C0.456 15.448 0.616 14.872 0.872 14.328C0.968 14.136 1.096 13.944 1.192 13.72C1.608 12.888 2.024 11.992 2.472 11.192C2.632 10.904 2.888 10.36 3.048 10.104C3.816 8.6 4.68 7 5.416 5.464C5.48 5.272 5.672 4.856 5.768 4.664L5.928 4.216L6.248 3.48C6.376 3.096 6.568 2.68 6.824 2.36H6.792C7.336 1.464 8.2 0.919998 9.256 0.759998C9.608 0.727999 9.928 0.663998 10.312 0.599998L11.432 0.407999C12.04 0.279999 12.68 0.375999 13.224 0.631998C13.736 0.887999 14.088 1.208 14.344 1.624L15.528 2.808C15.944 3.192 16.136 3.736 16.136 4.376C16.136 4.824 16.072 5.208 15.912 5.656L15.304 6.936L15.272 7L13.672 10.648L10.856 16.792L10.344 17.816C10.344 17.88 10.344 18.04 10.376 18.136ZM9.352 30.744C9.448 30.712 9.544 30.744 9.64 30.712C10.632 30.52 11.624 30.424 12.648 30.36C12.936 30.328 13.224 30.264 13.48 30.104C13.8 29.88 13.928 29.56 13.8 29.208C13.736 28.952 13.608 28.696 13.448 28.472C12.968 27.64 12.424 26.84 11.944 26.008L10.6 23.608C9.864 22.424 9.192 21.176 8.584 19.896C8.136 18.936 7.656 17.976 7.336 16.984C7.176 16.504 7.176 16.056 7.368 15.608C7.528 15.288 7.656 14.968 7.816 14.68L10.696 8.408L12.328 4.728L12.904 3.512C13 3.256 13.032 3.032 13.032 2.776C13.032 2.456 12.872 2.232 12.584 2.104C12.296 1.976 11.976 1.944 11.656 2.008L9.448 2.36C8.904 2.424 8.456 2.712 8.168 3.192C8.008 3.448 7.88 3.704 7.784 3.992C7.464 4.728 7.208 5.464 6.856 6.168C6.088 7.736 5.288 9.304 4.488 10.84C3.752 12.248 3.016 13.624 2.312 15.032C2.024 15.608 1.928 16.152 2.184 16.76L2.824 18.36L4.52 22.648L5.192 24.568C5.832 26.328 6.696 27.992 7.72 29.592C7.816 29.784 7.944 29.944 8.072 30.104C8.392 30.52 8.808 30.744 9.352 30.744ZM17.6015 33.496L16.4495 32.344C15.5855 31.864 15.1695 30.968 15.2335 29.784C15.2335 29.464 15.2975 29.176 15.3615 28.888L16.0335 26.616L18.4335 19.192C18.6895 18.392 18.8815 17.656 19.0095 16.952C19.2655 15.608 19.6815 14.232 20.1295 13.112C20.9295 10.808 21.6975 8.376 22.3695 6.008L22.4655 5.752C22.5935 5.304 22.7535 4.728 22.9135 4.344C22.9455 4.216 23.0095 3.992 23.0735 3.864C23.1055 3.736 23.2335 3.448 23.2975 3.32C23.3935 3.064 23.5215 2.744 23.6495 2.552V2.584C24.0975 1.784 24.8335 1.176 25.7295 0.983999C26.4975 0.823999 27.3295 0.695999 28.2255 0.663998C29.4735 0.599998 30.2415 1.08 30.6255 1.816L31.8095 3C32.3535 3.544 32.4815 4.344 32.3535 5.208L32.2575 5.848C31.7135 8.12 30.9775 10.52 30.1775 12.984L28.8335 16.984H28.8655C28.2575 18.84 27.6815 20.632 27.1055 22.488H27.0735L26.7215 23.64C26.4655 24.344 26.2735 24.92 26.0495 25.656H26.0175C25.6655 26.84 25.3455 28.056 25.0255 29.208L24.5135 31C24.4175 31.352 24.2575 31.832 24.1295 32.152C23.6815 33.272 22.7855 33.816 21.7615 34.008C21.0255 34.136 20.5135 34.168 20.0015 34.2H19.9055C19.7135 34.2 19.5535 34.232 19.2655 34.168C18.5615 34.136 17.9855 33.88 17.6015 33.496ZM18.3055 31.096C18.8495 31.064 19.3615 31.032 19.9055 30.936C20.4495 30.84 20.8975 30.584 21.1215 30.008C21.2495 29.688 21.3775 29.336 21.4735 28.984C21.9855 27.192 22.4655 25.4 23.0095 23.608C23.3295 22.52 23.7135 21.496 24.0655 20.44C24.6415 18.584 25.2175 16.76 25.8255 14.904L27.1695 10.904C27.9375 8.6 28.6415 6.264 29.1855 3.928L29.2815 3.352C29.3775 2.776 29.0895 2.232 28.2895 2.264C27.5535 2.296 26.8175 2.392 26.0815 2.552C25.6335 2.648 25.2815 2.904 25.0895 3.288C24.9615 3.48 24.8655 3.672 24.8015 3.864C24.5135 4.728 24.1615 5.592 23.9055 6.456C23.2015 8.888 22.4655 11.288 21.6335 13.656C21.1855 14.808 20.8335 16.024 20.5775 17.272C20.4175 18.072 20.2255 18.872 19.9695 19.672L17.5695 27.096L16.8975 29.368C16.8655 29.528 16.8335 29.72 16.8335 29.912C16.7695 30.584 17.1215 31.032 17.7935 31.064C17.9535 31.096 18.1455 31.096 18.3055 31.096ZM34.0758 32.536L32.9238 31.384C32.1238 30.904 31.7398 30.136 31.8038 29.08C31.8358 28.696 31.8997 28.216 31.9958 27.96C32.3158 27 32.7958 25.848 33.2758 24.888C33.9478 23.64 34.4598 22.52 34.8438 21.56L34.9078 21.336L35.3878 20.216C35.7078 19.48 35.9958 18.808 36.2838 18.072C36.2838 17.944 36.3798 17.848 36.4438 17.72C36.5398 17.528 36.6038 17.336 36.6358 17.208L36.9878 16.312C37.0518 16.12 37.0198 15.896 36.9558 15.736C36.6358 15.16 36.2838 14.424 35.9958 13.848L35.6758 13.208L35.1958 12.184L35.1318 12.088L34.2038 10.36L33.7878 9.528L33.4678 8.856L32.5718 7.16L32.1558 6.424L31.3238 4.792V4.824C31.0998 4.472 30.9078 4.024 30.8758 3.864C30.7477 3.512 30.7157 3.192 30.7157 2.872C30.7157 1.624 31.6118 0.727999 32.9238 0.503998C33.4998 0.407999 34.1078 0.311998 34.7478 0.471998H35.3878C36.4118 0.535999 37.2118 0.951998 37.8518 1.656L38.1398 2.104L39.3878 3.32L39.8358 3.96C40.5078 4.952 41.1478 5.976 41.7238 7.16C41.8518 7.416 42.0118 7.736 42.2038 8.024L43.3878 10.008C43.4518 10.168 43.4838 10.264 43.5798 10.36L43.6118 10.392L43.9318 10.872C44.7958 12.088 45.4678 13.368 46.0758 14.648L46.3318 15.224L46.6198 15.864C46.8438 16.408 46.9398 16.952 46.9398 17.464C46.9398 18.104 46.7798 18.744 46.4278 19.416H46.4598L45.3398 21.432H45.3718L44.1558 23.672C43.8678 24.216 43.6438 24.696 43.3878 25.272C42.7798 26.584 42.1718 27.832 41.5958 29.144L40.7318 31.032L40.6998 31.096L40.4438 31.64C39.8998 32.536 39.0358 33.08 38.1078 33.208L36.5078 33.368L35.5798 33.304C34.9398 33.144 34.4278 32.888 34.0758 32.536ZM34.8758 30.264L36.3478 30.104C36.8278 30.04 37.2438 29.784 37.4998 29.368L37.7238 28.888C38.6198 26.936 39.4838 24.984 40.4118 23.032C40.6678 22.456 40.9238 21.912 41.2118 21.368L42.4278 19.128C42.8118 18.456 43.1638 17.784 43.5158 17.112C43.8998 16.376 43.9638 15.64 43.6438 14.872C43.4518 14.488 43.2918 14.072 43.0998 13.656C42.4918 12.408 41.8518 11.16 41.0518 10.04C40.8598 9.784 40.6998 9.464 40.5078 9.176L39.3238 7.192C39.1318 6.872 38.9398 6.552 38.7798 6.2C38.2678 5.144 37.6278 4.152 36.9878 3.192L36.6358 2.712C36.2838 2.328 35.8678 2.104 35.3558 2.072C35.0358 2.072 34.7158 2.072 34.3958 2.04C33.9798 1.944 33.5958 2.008 33.1798 2.072C32.5398 2.168 32.1878 2.648 32.4118 3.32C32.5078 3.576 32.6358 3.832 32.7638 4.088C33.4678 5.432 34.2038 6.776 34.9078 8.152C35.4198 9.176 35.9318 10.264 36.5078 11.256L36.6358 11.48C37.2118 12.664 37.7558 13.848 38.3638 15C38.6838 15.64 38.7158 16.28 38.4598 16.952C38.2038 17.528 38.0438 18.136 37.7878 18.68C37.4038 19.64 36.9878 20.568 36.5718 21.528C35.9958 22.904 35.4198 24.312 34.7158 25.624C34.2358 26.552 33.8518 27.512 33.5318 28.472C33.4678 28.664 33.4038 28.888 33.4038 29.08C33.3078 29.688 33.5958 30.072 34.1718 30.2L34.8758 30.264Z" fill="white"/>
</svg>
