<svg width="220" height="620" viewBox="0 0 220 620" fill="none" xmlns="http://www.w3.org/2000/svg">
<path d="M-13.9397 355.513C2.43845 357.047 12.9578 358.591 28.5495 363.798C40.9955 367.955 57.0385 369.765 71.1428 372.188C78.3342 373.423 86.015 373.803 93.2975 374.064C102.222 374.383 111.904 372.823 120.705 374.533C141.288 378.532 162.128 386.855 178.744 399.65C200.314 416.26 216.152 438.706 217.905 466.454C219.255 487.839 206.06 512.755 190.341 526.537C166.33 547.588 135.874 548.956 105.259 549.569C86.886 549.937 69.3378 552.619 51.7444 557.959C35.9393 562.756 24.249 570.747 11.1794 580.418C-0.159744 588.808 -12.6057 596 -25.7971 601.001C-37.6225 605.485 -51.454 605.31 -63.9178 604.649C-82.0145 603.689 -104.42 601.272 -120.293 591.517C-133.665 583.3 -143.875 569.689 -152.745 557.125C-159.497 547.559 -165.863 536.295 -159.141 525.599C-155.141 519.233 -149.849 513.866 -146.036 507.256C-140.952 498.444 -136.763 489.955 -132.878 480.524C-122.163 454.509 -121.503 425.561 -109.267 400.067C-104.651 390.448 -97.423 382.452 -89.3489 375.575C-80.1241 367.719 -67.6001 359.069 -55.7008 355.982C-42.7545 352.623 -27.0434 354.286 -13.9397 355.513Z" fill="white" stroke="white" stroke-width="3" stroke-linecap="round"/>
<path d="M115.896 479.364C115.896 479.698 115.624 479.969 115.289 479.969C114.954 479.969 114.682 479.698 114.682 479.364C114.682 479.03 114.954 478.759 115.289 478.759C115.624 478.759 115.896 479.03 115.896 479.364Z" fill="black"/>
<path d="M42.2765 446.284C42.553 446.473 42.6234 446.85 42.4336 447.125C42.2439 447.401 41.8659 447.471 41.5894 447.282C41.3129 447.093 41.2425 446.716 41.4323 446.44C41.622 446.165 42 446.095 42.2765 446.284Z" fill="black"/>
<path d="M108.732 538.429C108.924 538.703 108.858 539.08 108.584 539.272C108.309 539.464 107.93 539.398 107.738 539.125C107.545 538.851 107.611 538.473 107.886 538.281C108.16 538.089 108.539 538.155 108.732 538.429Z" fill="black"/>
<path d="M7.34956 566.339C7.58353 566.738 7.50298 567.289 7.16963 567.57C6.83628 567.85 6.37637 567.753 6.14239 567.354C5.90841 566.955 5.98896 566.403 6.32231 566.123C6.65566 565.843 7.11557 565.939 7.34956 566.339Z" fill="black"/>
<path d="M-14.5101 605.489C-14.2761 605.888 -14.3567 606.44 -14.6901 606.72C-15.0234 607 -15.4833 606.904 -15.7173 606.504C-15.9513 606.105 -15.8707 605.554 -15.5374 605.273C-15.204 604.993 -14.7441 605.09 -14.5101 605.489Z" fill="black"/>
<path d="M46.1541 533.997C46.3652 534.357 46.2925 534.854 45.9917 535.107C45.6909 535.36 45.276 535.273 45.0648 534.913C44.8537 534.552 44.9264 534.055 45.2272 533.802C45.528 533.549 45.9429 533.636 46.1541 533.997Z" fill="black"/>
<path d="M158.725 428.664C158.684 428.249 158.958 427.827 159.337 427.722C159.716 427.617 160.057 427.869 160.098 428.284C160.139 428.7 159.865 429.121 159.486 429.226C159.107 429.331 158.766 429.079 158.725 428.664Z" fill="black"/>
<path d="M180.796 471.162C180.636 470.777 180.776 470.294 181.109 470.084C181.442 469.875 181.841 470.018 182 470.404C182.16 470.789 182.02 471.272 181.687 471.482C181.354 471.691 180.955 471.548 180.796 471.162Z" fill="black"/>
<path d="M162.353 511.264C162.194 510.878 162.334 510.395 162.667 510.186C162.999 509.976 163.398 510.119 163.558 510.505C163.718 510.891 163.577 511.373 163.245 511.583C162.912 511.792 162.513 511.649 162.353 511.264Z" fill="black"/>
<path d="M108.919 485.836C108.759 485.45 108.899 484.968 109.232 484.758C109.565 484.548 109.964 484.691 110.123 485.077C110.283 485.463 110.143 485.946 109.81 486.155C109.477 486.365 109.078 486.222 108.919 485.836Z" fill="black"/>
<path d="M87.8685 438.21C87.7089 437.824 87.8492 437.341 88.1818 437.132C88.5145 436.922 88.9137 437.065 89.0733 437.451C89.2329 437.837 89.0927 438.32 88.76 438.529C88.4273 438.739 88.0282 438.596 87.8685 438.21Z" fill="black"/>
<path d="M66.8185 390.584C66.6588 390.198 66.7991 389.715 67.1318 389.506C67.4645 389.296 67.8636 389.439 68.0232 389.825C68.1829 390.211 68.0426 390.693 67.7099 390.903C67.3772 391.112 66.9781 390.97 66.8185 390.584Z" fill="black"/>
<path d="M115.087 454.744C115.087 455.078 114.815 455.349 114.48 455.349C114.144 455.349 113.872 455.078 113.872 454.744C113.872 454.409 114.144 454.138 114.48 454.138C114.815 454.138 115.087 454.409 115.087 454.744Z" fill="black"/>
<path d="M21.4581 433.019C21.7346 433.208 21.8049 433.585 21.6152 433.86C21.4254 434.136 21.0475 434.206 20.771 434.017C20.4944 433.828 20.4241 433.451 20.6139 433.175C20.8036 432.899 21.1816 432.829 21.4581 433.019Z" fill="black"/>
<path d="M93.8824 518.741C94.0751 519.015 94.0088 519.392 93.7343 519.584C93.4598 519.777 93.0811 519.71 92.8884 519.437C92.6958 519.163 92.7621 518.785 93.0366 518.593C93.3111 518.401 93.6897 518.467 93.8824 518.741Z" fill="black"/>
<path d="M32.8019 488.46C32.9646 488.691 32.9086 489.01 32.6768 489.172C32.445 489.335 32.1252 489.279 31.9624 489.048C31.7997 488.817 31.8558 488.498 32.0876 488.335C32.3194 488.173 32.6392 488.229 32.8019 488.46Z" fill="black"/>
<path d="M-10.684 537.602C-10.45 538.001 -10.5306 538.553 -10.8639 538.833C-11.1973 539.113 -11.6572 539.017 -11.8912 538.617C-12.1251 538.218 -12.0446 537.667 -11.7112 537.386C-11.3779 537.106 -10.918 537.203 -10.684 537.602Z" fill="black"/>
<path d="M-32.5437 576.752C-32.3097 577.152 -32.3903 577.703 -32.7236 577.983C-33.057 578.264 -33.5169 578.167 -33.7509 577.768C-33.9848 577.368 -33.9043 576.817 -33.5709 576.537C-33.2376 576.256 -32.7777 576.353 -32.5437 576.752Z" fill="black"/>
<path d="M29.8824 508.068C30.0935 508.428 30.0208 508.925 29.7201 509.178C29.4193 509.431 29.0043 509.344 28.7932 508.984C28.5821 508.623 28.6547 508.126 28.9555 507.873C29.2563 507.62 29.6713 507.707 29.8824 508.068Z" fill="black"/>
<path d="M162.669 458.996C162.628 458.581 162.902 458.159 163.281 458.054C163.66 457.95 164.001 458.201 164.042 458.617C164.083 459.032 163.809 459.454 163.43 459.559C163.051 459.664 162.71 459.412 162.669 458.996Z" fill="black"/>
<path d="M193.354 499.068C193.194 498.682 193.335 498.2 193.667 497.99C194 497.781 194.399 497.924 194.559 498.309C194.718 498.695 194.578 499.178 194.246 499.387C193.913 499.597 193.514 499.454 193.354 499.068Z" fill="black"/>
<path d="M174.912 539.169C174.752 538.784 174.892 538.301 175.225 538.091C175.558 537.882 175.957 538.025 176.117 538.411C176.276 538.796 176.136 539.279 175.803 539.489C175.471 539.698 175.072 539.555 174.912 539.169Z" fill="black"/>
<path d="M121.477 513.742C121.317 513.356 121.458 512.873 121.79 512.664C122.123 512.454 122.522 512.597 122.682 512.983C122.841 513.369 122.701 513.852 122.369 514.061C122.036 514.271 121.637 514.128 121.477 513.742Z" fill="black"/>
<path d="M100.427 466.116C100.267 465.73 100.408 465.247 100.74 465.038C101.073 464.828 101.472 464.971 101.632 465.357C101.791 465.743 101.651 466.225 101.318 466.435C100.986 466.645 100.587 466.502 100.427 466.116Z" fill="black"/>
<path d="M79.3769 418.49C79.2173 418.104 79.3575 417.621 79.6902 417.411C80.0229 417.202 80.422 417.345 80.5817 417.731C80.7413 418.117 80.601 418.599 80.2684 418.809C79.9357 419.018 79.5366 418.875 79.3769 418.49Z" fill="black"/>
<path d="M104.157 462.009C104.157 462.343 103.885 462.614 103.55 462.614C103.214 462.614 102.942 462.343 102.942 462.009C102.942 461.674 103.214 461.403 103.55 461.403C103.885 461.403 104.157 461.674 104.157 462.009Z" fill="black"/>
<path d="M21.2817 446.115C21.5582 446.304 21.6285 446.681 21.4388 446.956C21.249 447.232 20.8711 447.302 20.5946 447.113C20.318 446.924 20.2477 446.547 20.4375 446.271C20.6272 445.995 21.0052 445.925 21.2817 446.115Z" fill="black"/>
<path d="M89.1226 530.948C89.3152 531.222 89.2489 531.599 88.9744 531.792C88.6999 531.984 88.3212 531.918 88.1286 531.644C87.9359 531.37 88.0022 530.993 88.2767 530.801C88.5512 530.608 88.9299 530.675 89.1226 530.948Z" fill="black"/>
<path d="M28.7821 498.769C28.9448 499.001 28.8888 499.319 28.657 499.482C28.4251 499.644 28.1053 499.588 27.9426 499.357C27.7799 499.126 27.8359 498.807 28.0677 498.645C28.2995 498.482 28.6194 498.538 28.7821 498.769Z" fill="black"/>
<path d="M-16.4646 555.42C-16.2306 555.819 -16.3112 556.37 -16.6445 556.651C-16.9779 556.931 -17.4378 556.834 -17.6718 556.435C-17.9057 556.036 -17.8252 555.484 -17.4918 555.204C-17.1585 554.924 -16.6986 555.02 -16.4646 555.42Z" fill="black"/>
<path d="M-38.3243 594.57C-38.0903 594.969 -38.1709 595.521 -38.5042 595.801C-38.8376 596.081 -39.2975 595.985 -39.5314 595.585C-39.7654 595.186 -39.6849 594.635 -39.3515 594.354C-39.0182 594.074 -38.5583 594.171 -38.3243 594.57Z" fill="black"/>
<path d="M24.6666 524.145C24.8777 524.505 24.805 525.002 24.5042 525.255C24.2035 525.508 23.7885 525.421 23.5774 525.061C23.3662 524.7 23.4389 524.203 23.7397 523.95C24.0405 523.697 24.4555 523.784 24.6666 524.145Z" fill="black"/>
<path d="M174.134 446.553C174.093 446.138 174.367 445.716 174.746 445.611C175.125 445.506 175.466 445.758 175.507 446.173C175.548 446.589 175.274 447.01 174.895 447.115C174.516 447.22 174.175 446.969 174.134 446.553Z" fill="black"/>
<path d="M200.728 483.855C200.568 483.469 200.709 482.986 201.041 482.777C201.374 482.567 201.773 482.71 201.933 483.096C202.093 483.482 201.952 483.964 201.62 484.174C201.287 484.383 200.888 484.241 200.728 483.855Z" fill="black"/>
<path d="M182.286 523.956C182.126 523.57 182.267 523.087 182.599 522.878C182.932 522.668 183.331 522.811 183.491 523.197C183.65 523.583 183.51 524.066 183.177 524.275C182.845 524.485 182.446 524.342 182.286 523.956Z" fill="black"/>
<path d="M128.851 498.528C128.691 498.142 128.832 497.66 129.164 497.45C129.497 497.241 129.896 497.384 130.056 497.769C130.215 498.155 130.075 498.638 129.743 498.848C129.41 499.057 129.011 498.914 128.851 498.528Z" fill="black"/>
<path d="M107.801 450.902C107.641 450.516 107.782 450.034 108.114 449.824C108.447 449.615 108.846 449.757 109.006 450.143C109.165 450.529 109.025 451.012 108.692 451.221C108.36 451.431 107.961 451.288 107.801 450.902Z" fill="black"/>
<path d="M86.751 403.276C86.5913 402.89 86.7316 402.407 87.0643 402.198C87.3969 401.988 87.7961 402.131 87.9557 402.517C88.1154 402.903 87.9751 403.386 87.6424 403.595C87.3097 403.805 86.9106 403.662 86.751 403.276Z" fill="black"/>
<path d="M99.2992 472.099C99.2992 472.433 99.0273 472.704 98.692 472.704C98.3566 472.704 98.0847 472.433 98.0847 472.099C98.0847 471.765 98.3566 471.494 98.692 471.494C99.0273 471.494 99.2992 471.765 99.2992 472.099Z" fill="black"/>
<path d="M26.8775 455.817C27.154 456.007 27.2243 456.383 27.0346 456.659C26.8448 456.935 26.4669 457.005 26.1903 456.816C25.9138 456.627 25.8435 456.25 26.0332 455.974C26.223 455.698 26.601 455.628 26.8775 455.817Z" fill="black"/>
<path d="M90.9607 541.99C91.1534 542.263 91.087 542.641 90.8125 542.833C90.538 543.025 90.1593 542.959 89.9667 542.685C89.774 542.412 89.8403 542.034 90.1148 541.842C90.3893 541.65 90.768 541.716 90.9607 541.99Z" fill="black"/>
<path d="M30.3344 508.094C30.4971 508.325 30.4411 508.644 30.2093 508.806C29.9775 508.969 29.6577 508.913 29.4949 508.682C29.3322 508.451 29.3883 508.132 29.6201 507.969C29.8519 507.807 30.1717 507.863 30.3344 508.094Z" fill="black"/>
<path d="M-14.2322 571.536C-13.9983 571.935 -14.0788 572.486 -14.4122 572.767C-14.7455 573.047 -15.2054 572.951 -15.4394 572.551C-15.6734 572.152 -15.5928 571.601 -15.2595 571.32C-14.9261 571.04 -14.4662 571.136 -14.2322 571.536Z" fill="black"/>
<path d="M-36.0919 610.686C-35.8579 611.086 -35.9385 611.637 -36.2718 611.917C-36.6052 612.198 -37.0651 612.101 -37.2991 611.702C-37.533 611.302 -37.4525 610.751 -37.1191 610.471C-36.7858 610.19 -36.3259 610.287 -36.0919 610.686Z" fill="black"/>
<path d="M26.6808 538.686C26.892 539.047 26.8193 539.544 26.5185 539.797C26.2177 540.05 25.8027 539.963 25.5916 539.602C25.3805 539.242 25.4532 538.745 25.754 538.492C26.0547 538.239 26.4697 538.326 26.6808 538.686Z" fill="black"/>
<path d="M178.385 432.499C178.344 432.083 178.618 431.662 178.997 431.557C179.377 431.452 179.717 431.704 179.759 432.119C179.8 432.534 179.526 432.956 179.146 433.061C178.767 433.166 178.426 432.914 178.385 432.499Z" fill="black"/>
<path d="M200.729 469.175C200.57 468.789 200.71 468.306 201.043 468.097C201.375 467.887 201.774 468.03 201.934 468.416C202.094 468.802 201.953 469.285 201.621 469.494C201.288 469.704 200.889 469.561 200.729 469.175Z" fill="black"/>
<path d="M182.287 509.276C182.127 508.89 182.268 508.408 182.6 508.198C182.933 507.989 183.332 508.131 183.492 508.517C183.652 508.903 183.511 509.386 183.179 509.595C182.846 509.805 182.447 509.662 182.287 509.276Z" fill="black"/>
<path d="M128.852 483.849C128.693 483.463 128.833 482.98 129.166 482.771C129.498 482.561 129.897 482.704 130.057 483.09C130.217 483.476 130.076 483.958 129.744 484.168C129.411 484.377 129.012 484.235 128.852 483.849Z" fill="black"/>
<path d="M107.802 436.222C107.643 435.837 107.783 435.354 108.116 435.144C108.448 434.935 108.847 435.078 109.007 435.464C109.167 435.849 109.026 436.332 108.694 436.542C108.361 436.751 107.962 436.608 107.802 436.222Z" fill="black"/>
<path d="M86.7522 388.596C86.5925 388.21 86.7328 387.728 87.0655 387.518C87.3982 387.309 87.7973 387.452 87.9569 387.837C88.1166 388.223 87.9763 388.706 87.6436 388.916C87.3109 389.125 86.9118 388.982 86.7522 388.596Z" fill="black"/>
<path d="M127.231 467.659C127.231 467.994 126.959 468.265 126.624 468.265C126.288 468.265 126.017 467.994 126.017 467.659C126.017 467.325 126.288 467.054 126.624 467.054C126.959 467.054 127.231 467.325 127.231 467.659Z" fill="black"/>
<path d="M39.0104 430.343C39.2869 430.532 39.3573 430.909 39.1675 431.185C38.9778 431.46 38.5998 431.53 38.3233 431.341C38.0468 431.152 37.9764 430.775 38.1662 430.499C38.3559 430.224 38.7339 430.154 39.0104 430.343Z" fill="black"/>
<path d="M111.265 522.356C111.457 522.63 111.391 523.007 111.116 523.199C110.842 523.392 110.463 523.325 110.271 523.052C110.078 522.778 110.144 522.4 110.419 522.208C110.693 522.016 111.072 522.082 111.265 522.356Z" fill="black"/>
<path d="M47.4816 491.513C47.6443 491.744 47.5883 492.063 47.3565 492.225C47.1247 492.388 46.8049 492.332 46.6422 492.101C46.4794 491.87 46.5355 491.551 46.7673 491.388C46.9991 491.226 47.3189 491.282 47.4816 491.513Z" fill="black"/>
<path d="M10.4257 542.879C10.6597 543.278 10.5791 543.829 10.2458 544.109C9.91242 544.39 9.45251 544.293 9.21854 543.894C8.98455 543.494 9.06511 542.943 9.39846 542.663C9.7318 542.383 10.1917 542.479 10.4257 542.879Z" fill="black"/>
<path d="M-11.434 582.029C-11.2 582.428 -11.2806 582.979 -11.6139 583.26C-11.9473 583.54 -12.4072 583.444 -12.6412 583.044C-12.8751 582.645 -12.7946 582.094 -12.4612 581.813C-12.1279 581.533 -11.668 581.629 -11.434 582.029Z" fill="black"/>
<path d="M48.9297 512.829C49.1408 513.189 49.0681 513.686 48.7673 513.939C48.4665 514.192 48.0516 514.105 47.8404 513.745C47.6293 513.384 47.702 512.887 48.0028 512.634C48.3036 512.381 48.7186 512.468 48.9297 512.829Z" fill="black"/>
<path d="M147.348 446.749C147.307 446.334 147.581 445.912 147.96 445.807C148.339 445.703 148.68 445.954 148.721 446.37C148.762 446.785 148.488 447.207 148.109 447.312C147.73 447.416 147.389 447.165 147.348 446.749Z" fill="black"/>
<path d="M175.14 491.752C174.98 491.367 175.12 490.884 175.453 490.674C175.786 490.465 176.185 490.608 176.345 490.994C176.504 491.379 176.364 491.862 176.031 492.072C175.699 492.281 175.299 492.138 175.14 491.752Z" fill="black"/>
<path d="M156.698 531.854C156.538 531.468 156.678 530.985 157.011 530.776C157.344 530.566 157.743 530.709 157.902 531.095C158.062 531.481 157.922 531.963 157.589 532.173C157.256 532.382 156.857 532.239 156.698 531.854Z" fill="black"/>
<path d="M103.263 506.426C103.103 506.04 103.243 505.558 103.576 505.348C103.909 505.138 104.308 505.281 104.468 505.667C104.627 506.053 104.487 506.536 104.154 506.745C103.822 506.955 103.422 506.812 103.263 506.426Z" fill="black"/>
<path d="M51.416 468.511C51.2563 468.126 51.3966 467.643 51.7293 467.433C52.062 467.224 52.4611 467.367 52.6207 467.753C52.7804 468.138 52.6401 468.621 52.3074 468.831C51.9747 469.04 51.5756 468.897 51.416 468.511Z" fill="black"/>
<path d="M51.416 468.511C51.2563 468.126 51.3966 467.643 51.7293 467.433C52.062 467.224 52.4611 467.367 52.6207 467.753C52.7804 468.138 52.6401 468.621 52.3074 468.831C51.9747 469.04 51.5756 468.897 51.416 468.511Z" fill="black"/>
<path d="M-5.46945 443.512C-5.6291 443.126 -5.48882 442.644 -5.15614 442.434C-4.82346 442.225 -4.42434 442.368 -4.2647 442.753C-4.10505 443.139 -4.24533 443.622 -4.57801 443.832C-4.91069 444.041 -5.30981 443.898 -5.46945 443.512Z" fill="black"/>
<path d="M105.853 555.716C105.693 555.331 105.834 554.848 106.166 554.638C106.499 554.429 106.898 554.572 107.058 554.958C107.217 555.343 107.077 555.826 106.744 556.036C106.412 556.245 106.013 556.102 105.853 555.716Z" fill="black"/>
<path d="M61.1627 411.174C61.003 410.788 61.1433 410.305 61.476 410.096C61.8086 409.886 62.2078 410.029 62.3674 410.415C62.5271 410.801 62.3868 411.283 62.0541 411.493C61.7214 411.702 61.3223 411.56 61.1627 411.174Z" fill="black"/>
<path d="M4.27722 386.175C4.11757 385.789 4.25784 385.306 4.59053 385.097C4.92321 384.887 5.32233 385.03 5.48197 385.416C5.64162 385.802 5.50134 386.284 5.16866 386.494C4.83598 386.703 4.43686 386.56 4.27722 386.175Z" fill="black"/>
<path d="M115.6 498.379C115.44 497.993 115.58 497.51 115.913 497.301C116.246 497.091 116.645 497.234 116.804 497.62C116.964 498.006 116.824 498.488 116.491 498.698C116.158 498.907 115.759 498.765 115.6 498.379Z" fill="black"/>
<path d="M134.922 483.4C134.922 483.735 134.651 484.006 134.315 484.006C133.98 484.006 133.708 483.735 133.708 483.4C133.708 483.066 133.98 482.795 134.315 482.795C134.651 482.795 134.922 483.066 134.922 483.4Z" fill="black"/>
<path d="M78.037 458.401C78.037 458.735 77.7651 459.007 77.4297 459.007C77.0944 459.007 76.8225 458.735 76.8225 458.401C76.8225 458.067 77.0944 457.796 77.4297 457.796C77.7651 457.796 78.037 458.067 78.037 458.401Z" fill="black"/>
<path d="M189.359 570.605C189.359 570.94 189.088 571.211 188.752 571.211C188.417 571.211 188.145 570.94 188.145 570.605C188.145 570.271 188.417 570 188.752 570C189.088 570 189.359 570.271 189.359 570.605Z" fill="black"/>
<path d="M56.3796 432.926C56.6562 433.116 56.7265 433.492 56.5367 433.768C56.347 434.044 55.969 434.114 55.6925 433.925C55.416 433.736 55.3456 433.359 55.5354 433.083C55.7252 432.807 56.1031 432.737 56.3796 432.926Z" fill="black"/>
<path d="M-0.505775 407.927C-0.229267 408.116 -0.158936 408.493 -0.348686 408.769C-0.538437 409.045 -0.916416 409.115 -1.19292 408.926C-1.46943 408.736 -1.53976 408.36 -1.35001 408.084C-1.16026 407.808 -0.782288 407.738 -0.505775 407.927Z" fill="black"/>
<path d="M110.817 520.131C111.093 520.321 111.164 520.697 110.974 520.973C110.784 521.249 110.406 521.319 110.13 521.13C109.853 520.941 109.783 520.564 109.972 520.288C110.162 520.012 110.54 519.942 110.817 520.131Z" fill="black"/>
<path d="M126.63 530.834C126.823 531.108 126.756 531.485 126.482 531.678C126.207 531.87 125.829 531.804 125.636 531.53C125.443 531.256 125.51 530.879 125.784 530.687C126.059 530.494 126.437 530.561 126.63 530.834Z" fill="black"/>
<path d="M69.7446 505.835C69.9373 506.109 69.871 506.486 69.5965 506.679C69.322 506.871 68.9433 506.804 68.7506 506.531C68.558 506.257 68.6243 505.88 68.8988 505.687C69.1733 505.495 69.552 505.561 69.7446 505.835Z" fill="black"/>
<path d="M181.067 618.039C181.26 618.313 181.193 618.69 180.919 618.883C180.644 619.075 180.266 619.009 180.073 618.735C179.88 618.461 179.947 618.084 180.221 617.891C180.496 617.699 180.874 617.766 181.067 618.039Z" fill="black"/>
<path d="M3.57275 473.674C3.73547 473.905 3.67945 474.224 3.44764 474.386C3.21582 474.549 2.896 474.493 2.73329 474.262C2.57058 474.03 2.6266 473.712 2.85841 473.549C3.09022 473.387 3.41005 473.443 3.57275 473.674Z" fill="black"/>
<path d="M114.895 585.878C115.058 586.109 115.002 586.428 114.77 586.59C114.538 586.753 114.218 586.697 114.056 586.466C113.893 586.235 113.949 585.916 114.181 585.753C114.413 585.591 114.733 585.647 114.895 585.878Z" fill="black"/>
<path d="M29.0862 555.253C29.3202 555.653 29.2396 556.204 28.9062 556.484C28.5729 556.765 28.113 556.668 27.879 556.269C27.645 555.869 27.7256 555.318 28.0589 555.038C28.3923 554.757 28.8522 554.854 29.0862 555.253Z" fill="black"/>
<path d="M-27.7992 530.254C-27.5653 530.654 -27.6458 531.205 -27.9792 531.485C-28.3125 531.766 -28.7724 531.669 -29.0064 531.27C-29.2404 530.87 -29.1598 530.319 -28.8265 530.039C-28.4931 529.758 -28.0332 529.855 -27.7992 530.254Z" fill="black"/>
<path d="M83.5232 642.458C83.7572 642.858 83.6766 643.409 83.3433 643.689C83.0099 643.97 82.55 643.873 82.316 643.474C82.0821 643.074 82.1626 642.523 82.496 642.243C82.8293 641.962 83.2892 642.059 83.5232 642.458Z" fill="black"/>
<path d="M7.22649 594.404C7.46047 594.803 7.37991 595.354 7.04656 595.635C6.71321 595.915 6.2533 595.818 6.01933 595.419C5.78534 595.019 5.86589 594.468 6.19925 594.188C6.53259 593.908 6.99251 594.004 7.22649 594.404Z" fill="black"/>
<path d="M-49.6589 569.405C-49.4249 569.804 -49.5055 570.355 -49.8389 570.635C-50.1722 570.916 -50.6321 570.819 -50.8661 570.42C-51.1001 570.02 -51.0195 569.469 -50.6862 569.189C-50.3528 568.909 -49.8929 569.005 -49.6589 569.405Z" fill="black"/>
<path d="M61.6635 681.609C61.8975 682.008 61.817 682.559 61.4836 682.84C61.1503 683.12 60.6903 683.023 60.4564 682.624C60.2224 682.224 60.3029 681.673 60.6363 681.393C60.9696 681.113 61.4295 681.209 61.6635 681.609Z" fill="black"/>
<path d="M65.767 523.994C65.9781 524.355 65.9054 524.852 65.6047 525.105C65.3039 525.358 64.8889 525.271 64.6778 524.911C64.4667 524.55 64.5393 524.053 64.8401 523.8C65.1409 523.547 65.5559 523.634 65.767 523.994Z" fill="black"/>
<path d="M136.715 429.6C136.674 429.185 136.948 428.763 137.327 428.658C137.706 428.553 138.047 428.805 138.088 429.22C138.129 429.636 137.855 430.057 137.476 430.162C137.097 430.267 136.756 430.015 136.715 429.6Z" fill="black"/>
<path d="M159.994 478.394C159.834 478.008 159.975 477.525 160.307 477.316C160.64 477.106 161.039 477.249 161.199 477.635C161.358 478.021 161.218 478.503 160.885 478.713C160.553 478.923 160.154 478.78 159.994 478.394Z" fill="black"/>
<path d="M141.552 518.495C141.392 518.109 141.532 517.626 141.865 517.417C142.198 517.207 142.597 517.35 142.757 517.736C142.916 518.122 142.776 518.605 142.443 518.814C142.111 519.024 141.711 518.881 141.552 518.495Z" fill="black"/>
<path d="M88.1171 493.067C87.9574 492.682 88.0977 492.199 88.4304 491.989C88.763 491.78 89.1622 491.923 89.3218 492.309C89.4814 492.694 89.3412 493.177 89.0085 493.387C88.6758 493.596 88.2767 493.453 88.1171 493.067Z" fill="black"/>
<path d="M67.067 445.441C66.9073 445.055 67.0476 444.573 67.3803 444.363C67.713 444.154 68.1121 444.296 68.2717 444.682C68.4314 445.068 68.2911 445.551 67.9584 445.76C67.6257 445.97 67.2266 445.827 67.067 445.441Z" fill="black"/>
<path d="M46.0169 397.815C45.8573 397.429 45.9975 396.947 46.3302 396.737C46.6629 396.527 47.062 396.67 47.2217 397.056C47.3813 397.442 47.241 397.925 46.9083 398.134C46.5757 398.344 46.1765 398.201 46.0169 397.815Z" fill="black"/>
<path d="M151.924 491.876C151.924 492.21 151.652 492.481 151.317 492.481C150.982 492.481 150.71 492.21 150.71 491.876C150.71 491.542 150.982 491.271 151.317 491.271C151.652 491.271 151.924 491.542 151.924 491.876Z" fill="black"/>
<path d="M73.009 423.745C73.2856 423.934 73.3559 424.311 73.1661 424.587C72.9764 424.863 72.5984 424.933 72.3219 424.743C72.0454 424.554 71.9751 424.177 72.1648 423.902C72.3546 423.626 72.7325 423.556 73.009 423.745Z" fill="black"/>
<path d="M145.43 528.033C145.623 528.306 145.556 528.684 145.282 528.876C145.007 529.068 144.629 529.002 144.436 528.728C144.243 528.455 144.31 528.077 144.584 527.885C144.859 527.693 145.237 527.759 145.43 528.033Z" fill="black"/>
<path d="M76.3353 496.307C76.498 496.538 76.442 496.857 76.2101 497.02C75.9783 497.182 75.6585 497.126 75.4958 496.895C75.3331 496.664 75.3891 496.345 75.6209 496.183C75.8527 496.02 76.1726 496.076 76.3353 496.307Z" fill="black"/>
<path d="M51.9177 551.164C52.1517 551.564 52.0711 552.115 51.7377 552.395C51.4044 552.676 50.9445 552.579 50.7105 552.18C50.4765 551.78 50.5571 551.229 50.8904 550.949C51.2238 550.668 51.6837 550.765 51.9177 551.164Z" fill="black"/>
<path d="M30.058 590.315C30.292 590.714 30.2114 591.265 29.8781 591.546C29.5447 591.826 29.0848 591.729 28.8508 591.33C28.6169 590.93 28.6974 590.379 29.0308 590.099C29.3641 589.819 29.824 589.915 30.058 590.315Z" fill="black"/>
<path d="M86.3678 520.305C86.5789 520.665 86.5063 521.163 86.2055 521.416C85.9047 521.669 85.4897 521.581 85.2786 521.221C85.0675 520.861 85.1402 520.363 85.4409 520.11C85.7417 519.857 86.1567 519.944 86.3678 520.305Z" fill="black"/>
<path d="M116.448 424.388C116.407 423.972 116.681 423.55 117.06 423.446C117.439 423.341 117.78 423.592 117.821 424.008C117.862 424.423 117.588 424.845 117.209 424.95C116.83 425.055 116.489 424.803 116.448 424.388Z" fill="black"/>
<path d="M139.081 479.237C138.921 478.851 139.061 478.368 139.394 478.159C139.727 477.949 140.126 478.092 140.285 478.478C140.445 478.864 140.305 479.346 139.972 479.556C139.639 479.766 139.24 479.623 139.081 479.237Z" fill="black"/>
<path d="M120.638 519.338C120.479 518.952 120.619 518.469 120.952 518.26C121.284 518.05 121.683 518.193 121.843 518.579C122.003 518.965 121.862 519.448 121.53 519.657C121.197 519.867 120.798 519.724 120.638 519.338Z" fill="black"/>
<path d="M67.2035 493.91C67.0439 493.525 67.1841 493.042 67.5168 492.832C67.8495 492.623 68.2486 492.766 68.4083 493.152C68.5679 493.537 68.4276 494.02 68.095 494.23C67.7623 494.439 67.3632 494.296 67.2035 493.91Z" fill="black"/>
<path d="M46.1535 446.284C45.9938 445.898 46.1341 445.416 46.4668 445.206C46.7994 444.997 47.1986 445.14 47.3582 445.525C47.5178 445.911 47.3776 446.394 47.0449 446.603C46.7122 446.813 46.3131 446.67 46.1535 446.284Z" fill="black"/>
<path d="M25.9948 395.159C25.8352 394.773 25.9754 394.291 26.3081 394.081C26.6408 393.872 27.0399 394.015 27.1996 394.4C27.3592 394.786 27.2189 395.269 26.8863 395.479C26.5536 395.688 26.1545 395.545 25.9948 395.159Z" fill="black"/>
<path d="M36.5115 502.62C36.5115 502.62 34.0304 500.781 27.8357 500.177L30.6839 509.487C35.4837 505.531 36.5115 502.62 36.5115 502.62ZM27.0534 500.036C19.9717 499.346 8.3718 500.161 -9.34239 506.46C-9.91084 506.649 -10.4369 506.832 -10.9226 507.009C-11.4083 507.185 -11.8534 507.355 -12.2596 507.516C-12.6658 507.678 -13.0332 507.83 -13.3631 507.972C-13.6935 508.115 -13.9863 508.247 -14.2435 508.368C-14.5011 508.489 -14.7231 508.598 -14.9107 508.693C-15.0989 508.788 -15.253 508.871 -15.3749 508.937C-15.6193 509.071 -15.7342 509.145 -15.7342 509.145C-15.7342 509.145 -15.7184 509.121 -15.6615 509.066C-15.6046 509.011 -15.5067 508.924 -15.3427 508.8C-15.2606 508.737 -15.1622 508.666 -15.0439 508.583C-14.9256 508.5 -14.7878 508.407 -14.6269 508.303C-14.4661 508.198 -14.2824 508.083 -14.073 507.954C-13.8635 507.826 -13.6278 507.685 -13.3633 507.531C-13.0984 507.377 -12.825 507.227 -12.549 507.081C-12.2732 506.935 -11.9947 506.795 -11.7202 506.661C-11.4453 506.527 -11.175 506.399 -10.9144 506.279C-10.8123 506.233 -10.721 506.193 -10.6223 506.149L-27.8604 501.954L-32.3037 503.247L-20.3996 512.431L-16.191 526.187L-20.9236 540.444L-16.4822 539.145L-4.58444 525.995C-4.69343 526.014 -4.79383 526.033 -4.90769 526.051C-5.1907 526.098 -5.48673 526.143 -5.78942 526.184C-6.09159 526.226 -6.40134 526.265 -6.71146 526.298C-7.02199 526.332 -7.33262 526.359 -7.63846 526.379C-7.94389 526.399 -8.21738 526.413 -8.46291 526.424C-8.70872 526.435 -8.92588 526.441 -9.11749 526.444C-9.30897 526.447 -9.47569 526.447 -9.61964 526.444C-9.76398 526.441 -9.88583 526.437 -9.98891 526.431C-10.1945 526.419 -10.324 526.402 -10.4021 526.388C-10.4801 526.374 -10.5065 526.363 -10.5065 526.363C-10.5065 526.363 -10.3697 526.36 -10.0929 526.335C-9.95407 526.322 -9.78056 526.304 -9.5712 526.278C-9.36213 526.253 -9.11719 526.219 -8.83637 526.176C-8.55555 526.132 -8.23857 526.079 -7.88524 526.013C-7.53178 525.947 -7.1417 525.869 -6.71455 525.776C-6.28792 525.683 -5.82423 525.576 -5.32262 525.451C-4.82128 525.327 -4.28253 525.185 -3.70595 525.025C14.536 520.366 24.6232 514.566 30.114 510.04L27.0534 500.036ZM16.2365 508.763C16.2383 508.768 16.2398 508.772 16.2408 508.777C16.2439 508.786 16.2465 508.794 16.2486 508.803C16.2512 508.811 16.2542 508.819 16.2563 508.828C16.259 508.837 16.261 508.845 16.2636 508.853C16.2663 508.862 16.2684 508.87 16.2706 508.879C16.2732 508.887 16.2757 508.895 16.2779 508.904C16.28 508.912 16.2827 508.921 16.2849 508.93C16.287 508.938 16.2892 508.947 16.2914 508.955C16.2939 508.964 16.2961 508.972 16.2982 508.981C16.3005 508.989 16.3026 508.997 16.3047 509.006C16.307 509.015 16.3092 509.023 16.3109 509.032C16.3131 509.04 16.3153 509.049 16.317 509.058C16.3192 509.066 16.3213 509.075 16.3235 509.083C16.3252 509.092 16.3274 509.1 16.3293 509.109C16.3311 509.118 16.3332 509.126 16.3349 509.134C16.3371 509.143 16.3389 509.152 16.3407 509.161C16.3424 509.169 16.3446 509.178 16.3463 509.186C16.3482 509.195 16.3499 509.203 16.3516 509.212C16.3534 509.221 16.3551 509.229 16.3569 509.238C16.3587 509.246 16.36 509.255 16.3618 509.264C16.3636 509.272 16.3649 509.281 16.3667 509.29C16.3684 509.298 16.3698 509.307 16.3716 509.316C16.3733 509.324 16.3743 509.333 16.376 509.342C16.3774 509.351 16.3792 509.359 16.3805 509.368C16.3819 509.377 16.3833 509.385 16.385 509.394C16.3864 509.403 16.3877 509.411 16.3891 509.42C16.3905 509.429 16.3918 509.438 16.3931 509.446C16.3944 509.455 16.3958 509.463 16.3971 509.472C16.3985 509.481 16.3999 509.49 16.4008 509.498C16.4021 509.507 16.4032 509.516 16.4044 509.524C16.4058 509.533 16.4067 509.542 16.4081 509.551C16.409 509.559 16.4104 509.568 16.4113 509.577C16.4122 509.586 16.4132 509.594 16.4145 509.603C16.4155 509.612 16.4163 509.62 16.4173 509.629C16.4183 509.638 16.4192 509.647 16.4201 509.655C16.421 509.664 16.4224 509.673 16.4228 509.682C16.4238 509.69 16.4248 509.699 16.4257 509.708C16.4262 509.717 16.4271 509.726 16.4281 509.734C16.4285 509.743 16.4295 509.752 16.4305 509.761C16.4309 509.769 16.4319 509.778 16.4323 509.787C16.4333 509.796 16.4338 509.805 16.4343 509.813C16.4352 509.822 16.4354 509.831 16.4362 509.839C16.4368 509.848 16.4373 509.857 16.4378 509.866C16.4384 509.875 16.4388 509.884 16.4393 509.892C16.4398 509.901 16.4403 509.91 16.4408 509.919C16.4413 509.927 16.4418 509.936 16.4423 509.945C16.4425 509.954 16.4429 509.962 16.4435 509.971C16.4435 509.98 16.4439 509.989 16.4441 509.998C16.4445 510.006 16.4447 510.015 16.4448 510.024C16.4452 510.033 16.4454 510.042 16.4458 510.05C16.446 510.06 16.446 510.068 16.4461 510.077C16.4462 510.086 16.4461 510.094 16.4463 510.103C16.4469 510.112 16.4468 510.121 16.4465 510.13C16.447 510.138 16.4466 510.147 16.4467 510.156C16.4468 510.165 16.4469 510.174 16.4465 510.183C16.4466 510.191 16.4466 510.2 16.4467 510.209C16.4464 510.218 16.4465 510.227 16.4461 510.235C16.4458 510.244 16.4458 510.253 16.4454 510.262C16.4455 510.27 16.4451 510.279 16.4448 510.288C16.4448 510.297 16.4445 510.306 16.4441 510.314C16.4437 510.323 16.4434 510.332 16.443 510.341C16.4427 510.35 16.4423 510.359 16.442 510.367C16.4416 510.376 16.4411 510.385 16.4408 510.393C16.4404 510.402 16.4397 510.411 16.4393 510.42C16.4389 510.429 16.4382 510.438 16.4377 510.446C16.437 510.455 16.4366 510.464 16.4361 510.472C16.4354 510.481 16.4346 510.49 16.4343 510.499C16.4334 510.508 16.4326 510.516 16.4323 510.525C16.4314 510.534 16.4306 510.543 16.4303 510.552C16.4294 510.56 16.4286 510.569 16.4279 510.578C16.427 510.587 16.4263 510.596 16.4254 510.604C16.4246 510.613 16.4233 510.622 16.4229 510.63C16.4217 510.639 16.421 510.648 16.4201 510.657C16.4189 510.666 16.4181 510.674 16.4172 510.683C16.4159 510.691 16.4151 510.7 16.4139 510.709C16.4131 510.718 16.4118 510.727 16.411 510.735C16.4098 510.744 16.4085 510.753 16.4076 510.761C16.4064 510.77 16.4051 510.779 16.4039 510.788C16.4027 510.797 16.4018 510.805 16.4005 510.814C16.3988 510.822 16.3981 510.831 16.3968 510.84C16.3955 510.849 16.3938 510.858 16.3926 510.866C16.3913 510.875 16.39 510.884 16.3883 510.892C16.3875 510.901 16.3858 510.91 16.3845 510.918C16.3828 510.927 16.3814 510.935 16.3802 510.944C16.3785 510.953 16.3768 510.962 16.3755 510.97C16.3737 510.979 16.3726 510.988 16.3709 510.997C16.3692 511.005 16.3678 511.014 16.3662 511.022C16.3644 511.031 16.3627 511.04 16.361 511.048C16.3593 511.057 16.3579 511.065 16.3559 511.074C16.3541 511.083 16.3528 511.091 16.3507 511.1C16.3489 511.109 16.3472 511.117 16.3454 511.126C16.3438 511.135 16.342 511.143 16.3399 511.152C16.3381 511.16 16.3359 511.169 16.3342 511.178C16.3324 511.186 16.3306 511.194 16.3286 511.203C16.3268 511.212 16.3242 511.22 16.3225 511.229C16.3203 511.238 16.3185 511.246 16.3164 511.255C16.3142 511.263 16.3124 511.272 16.3102 511.28C16.308 511.289 16.3058 511.297 16.3038 511.306C16.3014 511.314 16.2992 511.323 16.2971 511.331C16.2949 511.34 16.2928 511.349 16.2906 511.357C16.2884 511.366 16.2861 511.374 16.2839 511.382C16.2813 511.391 16.2791 511.399 16.2769 511.408C16.2747 511.416 16.2721 511.425 16.2694 511.433C16.2672 511.442 16.265 511.45 16.2624 511.459C16.2601 511.467 16.2575 511.476 16.2549 511.484C16.2526 511.492 16.25 511.501 16.2476 511.509C16.245 511.518 16.2425 511.526 16.2397 511.535C16.237 511.543 16.2348 511.551 16.2321 511.56C16.2295 511.568 16.2268 511.577 16.2242 511.585C16.2215 511.593 16.2188 511.602 16.2162 511.61C16.2134 511.619 16.2103 511.627 16.2077 511.636C16.205 511.644 16.2023 511.652 16.1996 511.66C16.1965 511.669 16.1939 511.677 16.1907 511.686C16.188 511.694 16.1853 511.702 16.1822 511.71C16.1795 511.719 16.1764 511.727 16.1737 511.735C16.1705 511.744 16.1674 511.752 16.1647 511.76C16.1616 511.768 16.1583 511.776 16.1552 511.785C16.1521 511.793 16.1494 511.801 16.1463 511.81C16.143 511.818 16.1399 511.826 16.1368 511.834C16.1336 511.842 16.1304 511.851 16.1273 511.859C16.1241 511.867 16.121 511.875 16.1179 511.884C16.1146 511.892 16.1114 511.9 16.1079 511.908C16.1046 511.916 16.1011 511.925 16.0979 511.932C16.0946 511.94 16.0915 511.949 16.0879 511.957C16.0848 511.965 16.0811 511.973 16.0779 511.981C16.0744 511.99 16.0711 511.998 16.0675 512.006C16.0639 512.014 16.0606 512.022 16.057 512.03C16.0534 512.038 16.0501 512.046 16.0465 512.054C16.0428 512.062 16.0392 512.07 16.0356 512.078C16.0323 512.086 16.0287 512.094 16.025 512.102C16.0214 512.11 16.0177 512.118 16.014 512.126C16.0104 512.134 16.0063 512.142 16.0026 512.15C15.9989 512.158 15.9953 512.166 15.9917 512.174C15.9875 512.182 15.9839 512.19 15.9801 512.198C15.9765 512.206 15.9723 512.214 15.9685 512.221C15.9649 512.23 15.9608 512.237 15.9567 512.246C15.953 512.253 15.9489 512.261 15.9452 512.269C15.941 512.277 15.9374 512.285 15.9332 512.293C15.929 512.301 15.9253 512.308 15.9211 512.316C15.917 512.324 15.9128 512.332 15.9087 512.339C15.9049 512.347 15.9007 512.355 15.8966 512.363C15.8924 512.371 15.8883 512.378 15.8841 512.386C15.88 512.394 15.8758 512.402 15.8716 512.41C15.8674 512.417 15.8632 512.425 15.859 512.433C15.8549 512.44 15.8502 512.448 15.846 512.456C15.8419 512.463 15.8376 512.471 15.833 512.479C15.8288 512.486 15.8246 512.494 15.8199 512.502C15.8158 512.509 15.8111 512.517 15.8069 512.525C15.8022 512.532 15.798 512.54 15.7933 512.547C15.789 512.554 15.7844 512.562 15.7798 512.57C15.7755 512.577 15.7709 512.585 15.7663 512.593C15.762 512.6 15.7569 512.608 15.7526 512.615C15.7479 512.623 15.7431 512.63 15.7386 512.638C15.7343 512.645 15.7295 512.652 15.7248 512.66C15.7197 512.668 15.7155 512.675 15.7107 512.682C15.7056 512.69 15.7013 512.697 15.6962 512.705C15.6915 512.712 15.6867 512.719 15.6819 512.727C15.6772 512.734 15.6726 512.742 15.6674 512.749C15.6627 512.756 15.6579 512.763 15.6527 512.771C15.648 512.778 15.6432 512.785 15.638 512.793C15.6333 512.8 15.6281 512.807 15.6229 512.815C15.6182 512.822 15.6134 512.829 15.6081 512.836C15.6034 512.844 15.5982 512.851 15.593 512.858C15.5882 512.865 15.583 512.873 15.5778 512.88C15.573 512.887 15.5678 512.894 15.5626 512.901C15.5573 512.908 15.5525 512.915 15.5469 512.923C15.542 512.929 15.5368 512.937 15.5316 512.944C15.5264 512.951 15.5211 512.958 15.5159 512.965C15.5105 512.972 15.5053 512.979 15.5 512.986C15.4948 512.993 15.4895 513 15.4842 513.007C15.4786 513.015 15.4733 513.021 15.4679 513.028C15.4626 513.035 15.4574 513.042 15.4521 513.049C15.4464 513.056 15.441 513.063 15.4357 513.07C15.4301 513.077 15.4247 513.084 15.4194 513.091C15.4136 513.097 15.4079 513.104 15.4026 513.111C15.3973 513.118 15.3915 513.125 15.3862 513.132C15.3804 513.139 15.3747 513.146 15.3693 513.152C15.3635 513.159 15.3582 513.166 15.3523 513.172C15.3466 513.179 15.3413 513.186 15.3354 513.193C15.3297 513.2 15.3239 513.206 15.318 513.213C15.3123 513.22 15.3069 513.226 15.301 513.233C15.2953 513.24 15.2895 513.246 15.2836 513.253C15.2778 513.26 15.2719 513.266 15.2665 513.273C15.2606 513.279 15.2545 513.286 15.2486 513.292C15.2428 513.299 15.2369 513.306 15.231 513.312C15.2252 513.319 15.2193 513.325 15.2135 513.332C15.2077 513.338 15.2013 513.345 15.1954 513.351C15.1895 513.357 15.1836 513.364 15.1774 513.371C15.1714 513.377 15.1652 513.384 15.1593 513.39C15.1534 513.396 15.147 513.403 15.1412 513.409C15.1352 513.415 15.1288 513.422 15.123 513.428C15.1166 513.435 15.1107 513.441 15.1043 513.447C15.0983 513.453 15.0921 513.46 15.086 513.466C15.0796 513.472 15.0733 513.478 15.0674 513.485C15.0609 513.491 15.0546 513.497 15.0482 513.503C15.0423 513.509 15.0359 513.516 15.0299 513.522C15.0234 513.528 15.0171 513.534 15.0107 513.54C15.0046 513.546 14.9979 513.553 14.9918 513.558C14.9854 513.565 14.9789 513.571 14.9724 513.577C14.9661 513.583 14.9597 513.589 14.9536 513.595C14.9467 513.601 14.9406 513.607 14.9342 513.613C14.9274 513.619 14.9213 513.625 14.9144 513.631C14.9079 513.637 14.9015 513.643 14.895 513.648C14.8885 513.654 14.882 513.66 14.8755 513.666C14.8686 513.672 14.8621 513.678 14.8556 513.684C14.849 513.689 14.8426 513.695 14.8357 513.701C14.8291 513.707 14.8226 513.713 14.816 513.718C14.8091 513.724 14.8026 513.73 14.7956 513.736C14.789 513.741 14.7825 513.747 14.7755 513.753C14.7689 513.758 14.7624 513.764 14.7554 513.77C14.7484 513.775 14.7419 513.781 14.7353 513.787C14.7283 513.792 14.7217 513.798 14.7147 513.804C14.7081 513.809 14.701 513.815 14.6944 513.82C14.6874 513.826 14.6804 513.831 14.6737 513.837C14.6667 513.842 14.6597 513.848 14.6531 513.853C14.6459 513.859 14.6389 513.864 14.6323 513.87C14.6252 513.875 14.6182 513.881 14.6111 513.886C14.6041 513.891 14.5973 513.896 14.5902 513.902C14.5832 513.907 14.5761 513.913 14.5693 513.918C14.5622 513.923 14.5552 513.928 14.5481 513.934C14.5409 513.939 14.5338 513.944 14.5267 513.949C14.5195 513.955 14.5124 513.96 14.5053 513.965C14.4982 513.97 14.491 513.975 14.4839 513.981C14.4767 513.986 14.4695 513.991 14.4624 513.996C14.4551 514.001 14.4481 514.006 14.4409 514.011C14.4338 514.016 14.4265 514.021 14.4193 514.026C14.4121 514.031 14.405 514.037 14.3973 514.041C14.3905 514.046 14.383 514.052 14.3757 514.056C14.3685 514.061 14.3612 514.066 14.3536 514.071C14.3463 514.076 14.3392 514.081 14.3318 514.085C14.3243 514.091 14.3169 514.095 14.3097 514.1C14.3024 514.105 14.2948 514.11 14.2875 514.115C14.2803 514.119 14.2725 514.124 14.2652 514.129C14.258 514.134 14.2503 514.139 14.243 514.143C14.2357 514.148 14.2279 514.152 14.2207 514.157C14.213 514.162 14.2057 514.167 14.1979 514.171C14.1906 514.176 14.1827 514.18 14.1755 514.185C14.1677 514.189 14.1604 514.194 14.153 514.198C14.1453 514.203 14.138 514.208 14.1302 514.212C14.1224 514.217 14.1149 514.221 14.1071 514.225C14.0999 514.23 14.092 514.234 14.0842 514.239C14.0769 514.243 14.0694 514.247 14.0616 514.252C14.0537 514.256 14.0463 514.26 14.0384 514.265C14.0307 514.269 14.0232 514.273 14.0154 514.278C14.0075 514.282 14.0001 514.286 13.9922 514.29C13.9843 514.295 13.9768 514.299 13.9691 514.303C13.9612 514.307 13.9533 514.311 13.9458 514.315C13.9379 514.32 13.93 514.324 13.9225 514.328C13.9146 514.332 13.9067 514.336 13.8988 514.34C13.8909 514.344 13.8834 514.348 13.8754 514.352C13.8675 514.356 13.8596 514.36 13.8516 514.364C13.8441 514.368 13.8361 514.372 13.8282 514.376C13.8202 514.38 13.8122 514.384 13.8043 514.388C13.7967 514.391 13.7887 514.395 13.7808 514.399C13.7727 514.403 13.7647 514.407 13.7567 514.411C13.7487 514.414 13.7411 514.418 13.7331 514.422C13.7247 514.426 13.717 514.429 13.709 514.433C13.701 514.437 13.693 514.44 13.685 514.444C13.677 514.448 13.6689 514.452 13.6608 514.455C13.6528 514.459 13.6447 514.462 13.6366 514.466C13.6286 514.47 13.6205 514.473 13.6125 514.477C13.6043 514.48 13.5962 514.483 13.5882 514.487C13.58 514.491 13.5719 514.494 13.5639 514.498C13.5558 514.501 13.5476 514.504 13.5395 514.508C13.5315 514.512 13.5232 514.514 13.5151 514.518C13.507 514.522 13.4988 514.525 13.4907 514.528C13.4826 514.532 13.4743 514.534 13.4661 514.538C13.4581 514.541 13.4498 514.544 13.4416 514.547C13.4336 514.551 13.4252 514.554 13.4166 514.557C13.4086 514.561 13.4003 514.563 13.392 514.566C13.384 514.57 13.3756 514.573 13.3673 514.575C13.359 514.578 13.3509 514.582 13.3427 514.585C13.3343 514.587 13.3258 514.591 13.3175 514.594C13.3091 514.596 13.301 514.6 13.2926 514.602C13.2842 514.605 13.2762 514.609 13.2678 514.611C13.2594 514.614 13.251 514.617 13.2427 514.62C13.2343 514.623 13.2263 514.626 13.2179 514.629C13.2095 514.631 13.2015 514.635 13.1931 514.638C13.1847 514.64 13.1759 514.643 13.1676 514.646C13.1592 514.648 13.1508 514.651 13.1424 514.653C13.134 514.656 13.1256 514.658 13.1173 514.661C13.1121 514.662 13.1073 514.664 13.1025 514.665C13.0941 514.668 13.0857 514.671 13.0773 514.673C13.069 514.676 13.0602 514.678 13.0518 514.681C13.0434 514.683 13.035 514.686 13.0267 514.689C13.0183 514.691 13.0099 514.694 13.0015 514.696C12.9931 514.699 12.984 514.7 12.9756 514.703C12.9672 514.705 12.9585 514.707 12.9501 514.709C12.9417 514.712 12.933 514.713 12.9246 514.716C12.9162 514.718 12.9071 514.72 12.8987 514.722C12.8903 514.725 12.8817 514.727 12.8733 514.729C12.8649 514.732 12.8562 514.733 12.8477 514.735C12.8393 514.738 12.8301 514.739 12.8216 514.741C12.8133 514.744 12.8045 514.745 12.796 514.748C12.7874 514.749 12.779 514.752 12.7704 514.754C12.7616 514.755 12.7532 514.758 12.7446 514.759C12.736 514.761 12.7271 514.763 12.7185 514.765C12.7101 514.766 12.7016 514.768 12.6926 514.77C12.6838 514.772 12.6753 514.774 12.6667 514.776C12.658 514.777 12.6495 514.779 12.6408 514.781C12.6321 514.782 12.6236 514.784 12.6148 514.786C12.6062 514.788 12.5976 514.789 12.589 514.791C12.5801 514.792 12.5716 514.794 12.563 514.796C12.5542 514.797 12.5455 514.799 12.5369 514.8C12.5281 514.802 12.5198 514.803 12.5107 514.805C12.502 514.806 12.4936 514.808 12.4849 514.809C12.4759 514.811 12.4675 514.812 12.4587 514.813C12.45 514.815 12.4413 514.816 12.4324 514.817C12.4237 514.818 12.4149 514.82 12.4062 514.821C12.3974 514.822 12.3891 514.824 12.3802 514.825C12.3715 514.826 12.3627 514.827 12.3538 514.828C12.3451 514.83 12.3364 514.831 12.3279 514.832C12.3191 514.833 12.3103 514.834 12.3014 514.835C12.2925 514.836 12.2838 514.838 12.2753 514.838C12.2666 514.84 12.2577 514.841 12.2492 514.842C12.24 514.843 12.2315 514.843 12.2226 514.844C12.2138 514.845 12.2053 514.846 12.1964 514.847C12.1875 514.848 12.1791 514.849 12.1701 514.85C12.1613 514.851 12.1528 514.851 12.1439 514.852C12.1349 514.853 12.126 514.854 12.1174 514.854C12.1086 514.855 12.1 514.856 12.0911 514.857C12.0821 514.857 12.0735 514.858 12.0647 514.859C12.0561 514.859 12.0471 514.86 12.0382 514.861C12.0296 514.861 12.0206 514.862 12.012 514.862C12.003 514.863 11.994 514.863 11.9855 514.864C11.9765 514.864 11.9679 514.865 11.9589 514.865C11.9503 514.866 11.9412 514.866 11.9326 514.866C11.924 514.867 11.915 514.867 11.9063 514.867C11.8973 514.868 11.8887 514.868 11.88 514.868C11.8709 514.868 11.8623 514.869 11.8532 514.869C11.8446 514.87 11.8359 514.87 11.8268 514.87C11.8181 514.87 11.8095 514.87 11.8003 514.87C11.7916 514.87 11.7829 514.87 11.7738 514.871C11.7651 514.871 11.7564 514.871 11.7477 514.871C11.7386 514.871 11.7298 514.871 11.7211 514.871C11.7124 514.871 11.7033 514.871 11.695 514.871C11.6858 514.871 11.677 514.871 11.6682 514.871C11.6595 514.871 11.6507 514.87 11.6419 514.87C11.6332 514.87 11.6244 514.87 11.6152 514.87C11.6064 514.87 11.598 514.869 11.5888 514.869C11.5801 514.869 11.5712 514.869 11.5624 514.868C11.554 514.868 11.5451 514.868 11.5359 514.867C11.5271 514.867 11.5182 514.867 11.5098 514.866C11.5009 514.866 11.4921 514.866 11.4832 514.865C11.4743 514.864 11.4655 514.864 11.4567 514.864C11.4477 514.863 11.4393 514.862 11.4304 514.862C11.422 514.862 11.413 514.861 11.4042 514.861C11.3952 514.86 11.3864 514.859 11.3778 514.859C11.3689 514.858 11.3601 514.857 11.3515 514.857C11.3427 514.856 11.3336 514.855 11.3251 514.855C11.3162 514.854 11.3072 514.853 11.2987 514.852C11.2897 514.851 11.2812 514.851 11.2722 514.85C11.2636 514.849 11.2546 514.848 11.246 514.847C11.2371 514.846 11.2285 514.845 11.2194 514.844C11.2109 514.843 11.2023 514.842 11.1932 514.841C11.1847 514.84 11.1756 514.839 11.167 514.838C11.1585 514.838 11.1498 514.836 11.1408 514.835C11.1321 514.834 11.1231 514.833 11.1144 514.832C11.1057 514.83 11.0971 514.83 11.0885 514.828C11.0799 514.827 11.0708 514.826 11.0621 514.825C11.0535 514.824 11.0448 514.823 11.0361 514.821C11.0274 514.82 11.0186 514.818 11.01 514.817C11.0013 514.816 10.9926 514.814 10.9839 514.813C10.9748 514.812 10.9666 514.811 10.9577 514.809C10.9491 514.808 10.9403 514.806 10.9316 514.805C10.9228 514.803 10.9141 514.802 10.9053 514.8C10.8966 514.799 10.8882 514.797 10.8794 514.795C10.8707 514.794 10.8619 514.792 10.8535 514.791C10.8449 514.789 10.8361 514.788 10.8273 514.786C10.8188 514.784 10.81 514.783 10.8016 514.781C10.7928 514.779 10.7844 514.777 10.7756 514.776C10.7668 514.774 10.7583 514.772 10.7495 514.77C10.7411 514.768 10.7327 514.767 10.7238 514.764C10.7154 514.763 10.7066 514.761 10.6981 514.759C10.6893 514.757 10.6807 514.755 10.6723 514.753C10.6635 514.751 10.655 514.749 10.6466 514.748C10.6377 514.745 10.6292 514.743 10.6207 514.741C10.6121 514.739 10.6037 514.737 10.5952 514.735C10.5862 514.733 10.5777 514.731 10.5692 514.728C10.5608 514.727 10.5523 514.724 10.5436 514.722C10.5352 514.72 10.5267 514.718 10.518 514.715C10.5095 514.713 10.501 514.711 10.4925 514.709C10.484 514.707 10.4753 514.704 10.4668 514.702C10.4587 514.699 10.45 514.697 10.4415 514.695C10.4328 514.692 10.4247 514.69 10.4162 514.688C10.4075 514.685 10.3994 514.683 10.3908 514.68C10.3821 514.677 10.3736 514.675 10.3654 514.673C10.3567 514.67 10.3485 514.667 10.3399 514.665C10.3317 514.662 10.323 514.66 10.3148 514.657C10.3061 514.654 10.2979 514.652 10.2897 514.649C10.281 514.646 10.2728 514.644 10.2641 514.641C10.2559 514.638 10.2476 514.636 10.2392 514.633C10.231 514.63 10.2224 514.627 10.2141 514.625C10.2057 514.622 10.1975 514.619 10.1893 514.616C10.1809 514.613 10.1722 514.61 10.1643 514.607C10.1556 514.605 10.1472 514.601 10.139 514.599C10.131 514.596 10.1224 514.593 10.1144 514.59C10.106 514.587 10.0977 514.583 10.0893 514.58C10.0811 514.578 10.0727 514.575 10.0643 514.571C10.0564 514.568 10.048 514.565 10.0397 514.562C10.0316 514.559 10.0234 514.556 10.0153 514.552C10.0069 514.549 9.99896 514.546 9.99059 514.543C9.98222 514.54 9.97425 514.537 9.96616 514.533C9.95779 514.53 9.94943 514.527 9.94146 514.524C9.93337 514.52 9.92499 514.517 9.9169 514.513C9.90893 514.51 9.90056 514.507 9.89247 514.503C9.8845 514.5 9.87601 514.496 9.86844 514.493C9.86022 514.489 9.85186 514.486 9.84428 514.483C9.83567 514.479 9.8277 514.476 9.81961 514.472C9.81164 514.469 9.80355 514.465 9.79546 514.461C9.78737 514.458 9.77927 514.454 9.77118 514.45C9.76349 514.447 9.7554 514.443 9.74731 514.439C9.73922 514.436 9.73152 514.432 9.72342 514.428C9.71521 514.424 9.70752 514.421 9.69943 514.417C9.69134 514.413 9.68365 514.41 9.67544 514.406C9.66774 514.402 9.65952 514.398 9.65183 514.394C9.64374 514.39 9.63592 514.386 9.62823 514.383C9.62002 514.379 9.61233 514.375 9.60412 514.371C9.5963 514.367 9.58861 514.363 9.58079 514.359C9.5731 514.355 9.56489 514.351 9.55719 514.347C9.54938 514.343 9.54157 514.339 9.53375 514.335C9.52594 514.331 9.51812 514.326 9.51031 514.322C9.50261 514.319 9.49468 514.314 9.48698 514.31C9.47905 514.306 9.47163 514.301 9.46382 514.297C9.456 514.293 9.44819 514.289 9.44038 514.285C9.43296 514.281 9.42502 514.276 9.41721 514.272C9.40979 514.268 9.40197 514.263 9.39443 514.259C9.38662 514.255 9.37921 514.25 9.37127 514.246C9.36386 514.242 9.35604 514.237 9.3485 514.233C9.34096 514.228 9.33315 514.224 9.32561 514.219C9.31819 514.215 9.31027 514.21 9.30273 514.206C9.29531 514.201 9.28777 514.197 9.28023 514.192C9.27282 514.188 9.26528 514.183 9.25774 514.179C9.2502 514.174 9.24279 514.17 9.23526 514.165C9.22772 514.16 9.22018 514.156 9.21264 514.151C9.2051 514.146 9.19797 514.141 9.19043 514.137C9.18289 514.132 9.17536 514.127 9.16822 514.123C9.16068 514.118 9.15302 514.113 9.14588 514.108C9.13835 514.103 9.1312 514.099 9.12354 514.094C9.11641 514.089 9.10887 514.084 9.10173 514.079C9.09407 514.074 9.08693 514.069 9.07967 514.064C9.07253 514.059 9.06488 514.054 9.05774 514.05C9.0506 514.045 9.04334 514.04 9.03608 514.034C9.02894 514.03 9.02128 514.025 9.01442 514.019C9.00728 514.014 8.99962 514.009 8.99236 514.004C8.98562 513.999 8.97836 513.994 8.9711 513.989C8.96396 513.984 8.95671 513.979 8.94985 513.974C8.94259 513.968 8.93532 513.963 8.92846 513.958C8.9212 513.953 8.91393 513.948 8.9072 513.943C8.89981 513.937 8.89296 513.932 8.8857 513.927C8.87884 513.921 8.87197 513.916 8.86471 513.911C8.85785 513.905 8.85099 513.9 8.84361 513.895C8.83675 513.889 8.8299 513.884 8.82264 513.879C8.81566 513.873 8.80878 513.868 8.80192 513.862C8.79494 513.857 8.78808 513.851 8.78122 513.846C8.77424 513.84 8.76737 513.835 8.76079 513.829C8.75353 513.824 8.74695 513.818 8.74009 513.813C8.7331 513.807 8.72624 513.802 8.71966 513.796C8.71268 513.79 8.70582 513.785 8.69923 513.779C8.69237 513.774 8.68579 513.768 8.67881 513.762C8.67234 513.757 8.66576 513.751 8.65877 513.745C8.65179 513.74 8.64521 513.734 8.63862 513.728C8.63204 513.722 8.62558 513.717 8.6186 513.711C8.61189 513.705 8.60543 513.699 8.59884 513.694C8.59226 513.688 8.58567 513.682 8.57909 513.676C8.57251 513.67 8.56581 513.664 8.55922 513.658C8.55264 513.652 8.54645 513.646 8.53987 513.641C8.53328 513.635 8.52658 513.628 8.52 513.623C8.51381 513.617 8.50723 513.611 8.50092 513.604C8.49434 513.599 8.48775 513.593 8.48145 513.586C8.47526 513.581 8.46868 513.575 8.46237 513.568C8.45579 513.563 8.44948 513.556 8.4433 513.55C8.43711 513.544 8.43081 513.538 8.42423 513.532C8.41792 513.526 8.41161 513.519 8.40543 513.513C8.39912 513.507 8.39293 513.501 8.38663 513.495C8.38044 513.489 8.37414 513.482 8.36783 513.476C8.36152 513.47 8.35573 513.464 8.34943 513.457C8.34312 513.451 8.33721 513.444 8.33103 513.439C8.32472 513.432 8.31841 513.426 8.3125 513.419C8.30672 513.413 8.3003 513.407 8.29439 513.4C8.28808 513.394 8.2823 513.388 8.27599 513.381C8.27009 513.375 8.26417 513.368 8.25826 513.362C8.25223 513.355 8.24605 513.349 8.24014 513.343C8.23423 513.336 8.22832 513.33 8.2223 513.323C8.21639 513.316 8.21048 513.31 8.20458 513.303C8.19867 513.297 8.19304 513.29 8.18713 513.283C8.18122 513.277 8.17532 513.27 8.16981 513.264C8.16378 513.257 8.15826 513.25 8.15236 513.244C8.14633 513.237 8.14082 513.23 8.13492 513.224C8.12941 513.217 8.12338 513.211 8.11787 513.204C8.11224 513.197 8.10633 513.19 8.1007 513.183C8.09519 513.177 8.08956 513.17 8.08366 513.163C8.07843 513.156 8.07291 513.15 8.06688 513.143C8.06137 513.136 8.05575 513.129 8.05024 513.123C8.04501 513.116 8.03898 513.109 8.03387 513.102C8.02824 513.095 8.02273 513.088 8.0175 513.081C8.01187 513.074 8.00636 513.068 8.00113 513.061C7.9955 513.054 7.99027 513.046 7.98476 513.04C7.97913 513.033 7.97391 513.026 7.96867 513.019C7.96344 513.011 7.9578 513.004 7.9527 512.998C7.94746 512.991 7.94224 512.984 7.93661 512.977C7.93138 512.969 7.92615 512.962 7.92091 512.955C7.91568 512.948 7.91058 512.941 7.90535 512.934C7.89999 512.927 7.89476 512.92 7.88993 512.912C7.88482 512.906 7.87958 512.899 7.87423 512.891C7.8694 512.884 7.86417 512.877 7.85946 512.87C7.85411 512.862 7.84888 512.855 7.84405 512.848C7.83882 512.841 7.83398 512.834 7.82875 512.827C7.82392 512.819 7.81896 512.812 7.81413 512.804C7.8089 512.797 7.80407 512.79 7.79911 512.782C7.79428 512.775 7.78945 512.768 7.78462 512.761C7.77979 512.753 7.77495 512.746 7.77 512.739C7.76517 512.731 7.76033 512.724 7.75538 512.717C7.75095 512.709 7.746 512.702 7.74116 512.694C7.73673 512.687 7.73178 512.679 7.72695 512.672C7.72251 512.665 7.71796 512.657 7.71312 512.65C7.70869 512.642 7.70373 512.635 7.6993 512.627C7.69475 512.62 7.69032 512.612 7.68536 512.605C7.68093 512.597 7.67598 512.59 7.67155 512.582C7.66699 512.574 7.66296 512.567 7.65813 512.56C7.65357 512.552 7.64902 512.544 7.64458 512.537C7.64043 512.529 7.63587 512.521 7.63144 512.514C7.62688 512.506 7.62285 512.499 7.61829 512.491C7.61386 512.484 7.6097 512.476 7.60515 512.468C7.60071 512.461 7.59656 512.453 7.59241 512.445C7.58785 512.437 7.58382 512.43 7.57966 512.422C7.57563 512.414 7.57108 512.406 7.56692 512.399C7.56289 512.391 7.55873 512.383 7.55457 512.375C7.55054 512.368 7.54627 512.36 7.54223 512.352C7.53808 512.344 7.53391 512.336 7.52988 512.329C7.52572 512.321 7.52157 512.313 7.51781 512.305C7.51366 512.297 7.50962 512.29 7.50587 512.282C7.50171 512.274 7.49756 512.266 7.4938 512.258C7.48964 512.25 7.48601 512.243 7.48225 512.235C7.4785 512.227 7.47434 512.219 7.47059 512.211C7.46683 512.203 7.46267 512.195 7.45904 512.187C7.45528 512.179 7.45152 512.171 7.44777 512.163C7.44401 512.155 7.44025 512.147 7.4365 512.139C7.43314 512.131 7.42899 512.123 7.42563 512.115C7.42187 512.107 7.41812 512.099 7.41436 512.091C7.411 512.083 7.40736 512.075 7.40401 512.067C7.40013 512.059 7.39677 512.051 7.39314 512.043C7.38978 512.035 7.3859 512.027 7.38254 512.018C7.37931 512.011 7.37595 512.003 7.37247 511.994C7.36924 511.986 7.36548 511.978 7.36212 511.97C7.35864 511.962 7.35529 511.954 7.35193 511.945C7.34857 511.937 7.34533 511.93 7.34185 511.921C7.3385 511.913 7.33553 511.905 7.33218 511.897C7.32882 511.888 7.32587 511.88 7.32251 511.872C7.31955 511.864 7.31619 511.856 7.31283 511.848C7.30975 511.839 7.30652 511.831 7.30356 511.823C7.30008 511.814 7.29753 511.806 7.29417 511.798C7.29121 511.79 7.28824 511.782 7.28529 511.773C7.28193 511.765 7.27897 511.757 7.27589 511.748C7.27293 511.74 7.26998 511.732 7.26702 511.724C7.26406 511.715 7.2615 511.707 7.25854 511.699C7.25558 511.69 7.25302 511.682 7.25007 511.674C7.24711 511.666 7.24443 511.657 7.24147 511.649C7.23851 511.64 7.23595 511.632 7.23339 511.624C7.23043 511.615 7.22787 511.607 7.22491 511.599C7.22223 511.59 7.21968 511.582 7.21712 511.573C7.21456 511.565 7.2116 511.557 7.20904 511.548C7.20758 511.543 7.20612 511.539 7.20453 511.534C7.20197 511.525 7.19941 511.517 7.19685 511.508C7.19429 511.5 7.19173 511.492 7.18957 511.483C7.18689 511.474 7.18433 511.466 7.18217 511.458C7.17961 511.449 7.17745 511.441 7.17489 511.432C7.17273 511.424 7.17018 511.416 7.16802 511.407C7.16534 511.398 7.16317 511.39 7.16101 511.381C7.15885 511.373 7.1563 511.364 7.15414 511.356C7.15198 511.347 7.14981 511.339 7.14753 511.33C7.14537 511.322 7.14321 511.313 7.14105 511.305C7.13889 511.296 7.13673 511.288 7.13457 511.279C7.13241 511.271 7.13025 511.262 7.12809 511.254C7.12633 511.245 7.12405 511.236 7.12228 511.228C7.12013 511.219 7.11837 511.211 7.11621 511.202C7.11445 511.193 7.11228 511.185 7.11052 511.176C7.10876 511.168 7.1066 511.159 7.10484 511.151C7.10296 511.142 7.10132 511.133 7.09916 511.125C7.09728 511.116 7.09551 511.107 7.09387 511.099C7.09199 511.09 7.09075 511.082 7.08887 511.073C7.08711 511.064 7.08547 511.056 7.08371 511.047C7.08183 511.038 7.08046 511.03 7.0787 511.021C7.07694 511.012 7.07557 511.004 7.07381 510.995C7.07257 510.987 7.07082 510.978 7.06933 510.969C7.06809 510.961 7.06634 510.952 7.06497 510.943C7.06361 510.935 7.06184 510.926 7.06048 510.917C7.05912 510.909 7.05776 510.9 7.0564 510.891C7.05504 510.882 7.05368 510.874 7.05231 510.865C7.05095 510.856 7.04959 510.847 7.04835 510.839C7.04699 510.83 7.04603 510.821 7.04466 510.813C7.0433 510.804 7.04194 510.795 7.04098 510.786C7.04002 510.778 7.03877 510.769 7.03781 510.76C7.03645 510.752 7.03549 510.743 7.03413 510.734C7.03329 510.726 7.03232 510.717 7.03096 510.708C7.03 510.699 7.02903 510.69 7.02819 510.682C7.02722 510.673 7.02626 510.664 7.02542 510.656C7.02446 510.647 7.0235 510.638 7.02253 510.629C7.02157 510.62 7.02073 510.612 7.01977 510.603C7.01881 510.594 7.01836 510.586 7.0174 510.577C7.01644 510.568 7.016 510.559 7.01504 510.55C7.01459 510.542 7.01363 510.533 7.01307 510.524C7.01211 510.515 7.01166 510.507 7.01109 510.498C7.01025 510.489 7.00969 510.48 7.00925 510.472C7.00868 510.463 7.00824 510.454 7.00768 510.445C7.00712 510.436 7.00667 510.428 7.00571 510.419C7.00567 510.41 7.0051 510.401 7.00466 510.393C7.0041 510.384 7.00365 510.375 7.00361 510.366C7.00305 510.357 7.00261 510.349 7.00204 510.34C7.002 510.331 7.00144 510.322 7.0014 510.313C7.00096 510.305 7.00079 510.296 7.00075 510.287C7.00018 510.278 7.00014 510.269 6.9997 510.261C6.99953 510.252 6.99949 510.243 6.99945 510.234C6.99929 510.225 6.99924 510.216 6.9988 510.208C6.99864 510.199 6.99859 510.19 6.99855 510.181C6.99891 510.173 6.99887 510.164 6.9987 510.155C6.99866 510.146 6.99862 510.137 6.99897 510.129C6.99881 510.119 6.99888 510.111 6.99912 510.102C6.99907 510.093 6.99903 510.085 6.99939 510.076C6.99934 510.067 6.9997 510.058 7.00006 510.049C7.00001 510.041 7.00037 510.032 7.00073 510.023C7.00056 510.014 7.00104 510.006 7.0014 509.997C7.00175 509.988 7.00211 509.979 7.00234 509.97C7.00282 509.961 7.00318 509.953 7.00354 509.944C7.0039 509.935 7.00425 509.926 7.00461 509.917C7.00496 509.909 7.00572 509.9 7.0062 509.891C7.00695 509.882 7.00731 509.873 7.00767 509.865C7.00815 509.856 7.0089 509.847 7.00926 509.838C7.01001 509.83 7.01077 509.821 7.01125 509.812C7.012 509.803 7.01288 509.795 7.01323 509.786C7.01399 509.777 7.01487 509.768 7.01522 509.76C7.01638 509.75 7.01686 509.742 7.01761 509.733C7.01849 509.725 7.01924 509.716 7.02012 509.707C7.02088 509.698 7.02175 509.69 7.0229 509.681C7.02378 509.672 7.02454 509.663 7.02529 509.654C7.02657 509.645 7.02745 509.637 7.02821 509.628C7.02948 509.619 7.03036 509.611 7.03151 509.602C7.03239 509.593 7.03367 509.585 7.03442 509.576C7.0357 509.567 7.03698 509.558 7.03813 509.549C7.03901 509.541 7.04028 509.532 7.04156 509.523C7.04232 509.514 7.04371 509.506 7.04499 509.497C7.04614 509.488 7.04742 509.48 7.0487 509.471C7.04998 509.462 7.05165 509.454 7.05293 509.445C7.0542 509.436 7.05549 509.428 7.05676 509.419C7.05804 509.41 7.05971 509.401 7.06098 509.393C7.06266 509.384 7.06394 509.375 7.06561 509.367C7.06689 509.358 7.06829 509.35 7.06984 509.34C7.07164 509.332 7.07291 509.323 7.07459 509.315C7.07586 509.306 7.07806 509.297 7.07934 509.289C7.08101 509.28 7.08269 509.271 7.08449 509.263C7.08576 509.254 7.08796 509.246 7.08924 509.237C7.09131 509.228 7.09271 509.22 7.09439 509.211C7.09658 509.203 7.09826 509.194 7.09993 509.185C7.10173 509.177 7.10353 509.168 7.1056 509.159C7.1074 509.151 7.10908 509.142 7.11127 509.134C7.11307 509.125 7.11514 509.116 7.11694 509.108C7.11874 509.1 7.12081 509.091 7.12301 509.082C7.1248 509.074 7.12688 509.065 7.12908 509.056C7.13088 509.048 7.13307 509.039 7.13527 509.031C7.13735 509.022 7.13955 509.014 7.14174 509.005C7.14406 508.997 7.14613 508.988 7.14832 508.979C7.15012 508.971 7.15272 508.962 7.15492 508.954C7.15712 508.945 7.1593 508.937 7.1615 508.928C7.16422 508.92 7.1663 508.911 7.16862 508.903C7.17081 508.895 7.17341 508.886 7.17561 508.878C7.17832 508.869 7.18052 508.861 7.18312 508.852C7.18543 508.844 7.18803 508.835 7.19023 508.827C7.19294 508.819 7.19554 508.81 7.19774 508.802C7.20046 508.793 7.20305 508.785 7.20576 508.776C7.20796 508.768 7.21108 508.76 7.21327 508.751C7.21599 508.743 7.21871 508.735 7.2213 508.726C7.2239 508.717 7.22661 508.709 7.22933 508.701C7.23193 508.692 7.23465 508.684 7.23777 508.676C7.24049 508.667 7.2432 508.659 7.24619 508.65C7.24891 508.642 7.25164 508.634 7.25475 508.626C7.25747 508.617 7.26058 508.609 7.2633 508.601C7.26602 508.593 7.26913 508.584 7.27185 508.576C7.27497 508.568 7.27809 508.559 7.2808 508.551C7.28392 508.543 7.28703 508.534 7.29015 508.526C7.29287 508.518 7.2961 508.51 7.29922 508.501C7.30234 508.493 7.30545 508.485 7.30869 508.477C7.31181 508.468 7.31493 508.46 7.31816 508.452C7.32128 508.444 7.32452 508.436 7.32764 508.427C7.33088 508.419 7.3344 508.411 7.33763 508.403C7.34075 508.395 7.34399 508.387 7.34763 508.379C7.35074 508.37 7.35398 508.362 7.3575 508.354C7.36073 508.346 7.36437 508.338 7.36761 508.33C7.37113 508.321 7.37436 508.313 7.378 508.305C7.38124 508.297 7.38488 508.289 7.38852 508.281C7.39175 508.273 7.39539 508.265 7.39903 508.257C7.40266 508.249 7.40591 508.241 7.40994 508.233C7.41358 508.225 7.41682 508.217 7.42045 508.209C7.42409 508.201 7.42773 508.193 7.43136 508.185C7.43512 508.177 7.43916 508.169 7.4428 508.161C7.44644 508.153 7.4502 508.145 7.45384 508.137C7.45747 508.129 7.46163 508.121 7.46539 508.113C7.46903 508.105 7.47267 508.097 7.47683 508.089C7.48047 508.081 7.48462 508.073 7.48878 508.066C7.49254 508.058 7.49658 508.05 7.50034 508.042C7.50398 508.034 7.50813 508.026 7.51229 508.018C7.51645 508.011 7.52021 508.003 7.52437 507.995C7.52853 507.987 7.53256 507.979 7.53632 507.971C7.54048 507.964 7.54463 507.956 7.54879 507.948C7.55295 507.94 7.55711 507.932 7.56127 507.925C7.56555 507.917 7.56971 507.909 7.57387 507.902C7.57802 507.894 7.58231 507.886 7.58687 507.878C7.59063 507.871 7.59519 507.863 7.59947 507.855C7.60363 507.848 7.6083 507.84 7.61246 507.832C7.61662 507.825 7.6209 507.817 7.62546 507.809C7.62974 507.802 7.63442 507.794 7.63858 507.787C7.64326 507.779 7.64754 507.772 7.6521 507.764C7.65638 507.756 7.66106 507.749 7.66534 507.741C7.67029 507.733 7.67457 507.726 7.67925 507.718C7.68353 507.711 7.68821 507.703 7.69289 507.696C7.69757 507.688 7.70224 507.681 7.70692 507.673C7.7112 507.666 7.71589 507.658 7.72069 507.651C7.72537 507.644 7.73004 507.636 7.73472 507.629C7.7394 507.621 7.74409 507.614 7.74889 507.607C7.75397 507.599 7.75877 507.592 7.76345 507.584C7.76813 507.577 7.77293 507.57 7.77814 507.562C7.78281 507.555 7.78801 507.548 7.79229 507.54C7.79749 507.533 7.80229 507.526 7.80737 507.518C7.81217 507.511 7.81725 507.503 7.82217 507.497C7.82725 507.489 7.83205 507.482 7.83686 507.475C7.84193 507.467 7.84726 507.46 7.85206 507.453C7.85726 507.446 7.86246 507.439 7.86726 507.432C7.87246 507.424 7.87766 507.417 7.88286 507.41C7.88806 507.403 7.89338 507.396 7.89819 507.389C7.90339 507.381 7.90859 507.374 7.91391 507.367C7.91911 507.36 7.92431 507.353 7.92963 507.346C7.93483 507.339 7.94016 507.332 7.94536 507.325C7.95068 507.318 7.956 507.311 7.9612 507.304C7.96652 507.297 7.97225 507.29 7.97757 507.283C7.98277 507.276 7.98809 507.269 7.99381 507.262C7.99914 507.255 8.00446 507.248 8.00978 507.241C8.01538 507.234 8.0207 507.227 8.02602 507.22C8.03174 507.213 8.03707 507.206 8.04291 507.2C8.04823 507.193 8.05395 507.186 8.05928 507.179C8.065 507.172 8.07044 507.166 8.07616 507.159C8.08201 507.152 8.08733 507.145 8.09305 507.138C8.09877 507.131 8.10422 507.125 8.10994 507.118C8.11578 507.111 8.12163 507.105 8.12695 507.098C8.13279 507.091 8.13863 507.085 8.14435 507.078C8.1502 507.071 8.15604 507.065 8.16176 507.058C8.16773 507.052 8.17317 507.045 8.1789 507.038C8.18514 507.031 8.19098 507.025 8.19683 507.018C8.20267 507.012 8.20851 507.005 8.21436 506.999C8.22032 506.992 8.22616 506.986 8.232 506.979C8.23824 506.973 8.24409 506.966 8.25005 506.96C8.2559 506.953 8.26174 506.947 8.26811 506.94C8.27407 506.934 8.27991 506.928 8.28616 506.921C8.29212 506.915 8.29809 506.909 8.30433 506.902C8.3103 506.896 8.31666 506.889 8.3225 506.883C8.32887 506.877 8.33483 506.87 8.3412 506.864C8.34704 506.858 8.35341 506.851 8.35937 506.845C8.36574 506.839 8.3717 506.833 8.37807 506.826C8.38443 506.82 8.39079 506.814 8.39676 506.808C8.40324 506.802 8.40921 506.795 8.41557 506.789C8.42194 506.783 8.42842 506.777 8.43439 506.771C8.44075 506.765 8.44724 506.759 8.45361 506.752C8.46009 506.746 8.46645 506.74 8.47294 506.734C8.47891 506.728 8.48591 506.722 8.49188 506.716C8.49836 506.71 8.50525 506.704 8.51122 506.698C8.5181 506.692 8.52458 506.686 8.53095 506.68C8.53743 506.674 8.54392 506.668 8.55053 506.663C8.55702 506.657 8.5635 506.651 8.56999 506.645C8.57648 506.639 8.58296 506.633 8.58985 506.627C8.59633 506.621 8.60294 506.616 8.60943 506.61C8.61643 506.604 8.62292 506.598 8.62981 506.592C8.63641 506.587 8.64291 506.581 8.64991 506.575C8.6564 506.569 8.663 506.564 8.67001 506.558C8.6765 506.552 8.68311 506.547 8.69011 506.541C8.6966 506.535 8.70361 506.53 8.71061 506.524C8.71722 506.519 8.72423 506.513 8.73083 506.508C8.73784 506.502 8.74445 506.496 8.75146 506.491C8.75807 506.485 8.76508 506.48 8.77181 506.475C8.77881 506.469 8.78581 506.463 8.79242 506.458C8.79943 506.452 8.80656 506.447 8.81356 506.441C8.82029 506.436 8.8273 506.431 8.83431 506.425C8.84144 506.42 8.84817 506.415 8.8553 506.409C8.86231 506.404 8.86944 506.399 8.87617 506.394C8.8833 506.388 8.89031 506.383 8.89743 506.377C8.90456 506.372 8.91169 506.367 8.91882 506.362C8.92595 506.357 8.93308 506.351 8.94021 506.346C8.94734 506.341 8.95447 506.336 8.9616 506.33C8.96885 506.326 8.97597 506.32 8.9831 506.315C8.99023 506.31 8.99748 506.305 9.00461 506.3C9.01174 506.295 9.01887 506.289 9.02612 506.285C9.03337 506.28 9.0405 506.275 9.04775 506.27C9.0554 506.265 9.06253 506.26 9.06978 506.255C9.07703 506.25 9.08468 506.245 9.09181 506.24C9.09918 506.235 9.10631 506.23 9.11368 506.226C9.12121 506.22 9.12846 506.216 9.13583 506.211C9.14308 506.206 9.15074 506.201 9.15799 506.197C9.16524 506.192 9.17301 506.187 9.18026 506.182C9.18751 506.178 9.19476 506.173 9.20253 506.168C9.21018 506.163 9.21756 506.159 9.22481 506.154C9.23206 506.149 9.23984 506.145 9.24761 506.14C9.25486 506.135 9.26263 506.131 9.27001 506.126C9.27726 506.121 9.28502 506.117 9.29279 506.112C9.30016 506.108 9.30793 506.103 9.31531 506.099C9.32308 506.094 9.33046 506.09 9.33823 506.085C9.3456 506.081 9.3535 506.077 9.36087 506.072C9.36864 506.068 9.37641 506.063 9.38391 506.059C9.39168 506.055 9.39906 506.05 9.40695 506.046C9.41445 506.042 9.42221 506.038 9.4301 506.033C9.43787 506.029 9.44538 506.025 9.45315 506.02C9.46104 506.016 9.46853 506.012 9.47643 506.008C9.48432 506.004 9.49169 505.999 9.49958 505.995C9.50748 505.991 9.51538 505.987 9.52287 505.983C9.53076 505.979 9.53865 505.975 9.54655 505.97C9.55456 505.967 9.56206 505.963 9.56996 505.959C9.57785 505.954 9.58586 505.951 9.59375 505.947C9.60165 505.942 9.60927 505.939 9.61729 505.935C9.62518 505.931 9.63319 505.927 9.64068 505.923C9.6491 505.919 9.65672 505.916 9.66473 505.912C9.67275 505.908 9.68076 505.904 9.68866 505.9C9.69667 505.896 9.70469 505.893 9.71231 505.889C9.7202 505.885 9.72821 505.881 9.73635 505.878C9.74437 505.874 9.75239 505.87 9.7604 505.867C9.76842 505.863 9.77655 505.859 9.78457 505.856C9.79259 505.852 9.80072 505.849 9.80873 505.845C9.81675 505.841 9.82489 505.838 9.83303 505.834C9.84065 505.831 9.84918 505.827 9.85732 505.824C9.86533 505.82 9.87347 505.817 9.88121 505.814C9.88963 505.81 9.89789 505.807 9.9059 505.803C9.91404 505.8 9.92217 505.796 9.93031 505.793C9.93845 505.79 9.94671 505.787 9.95485 505.783C9.96286 505.78 9.97112 505.777 9.97926 505.773C9.98727 505.769 9.99566 505.767 10.0038 505.764C10.0119 505.76 10.0202 505.757 10.0283 505.754C10.0365 505.751 10.0452 505.748 10.0534 505.745C10.0614 505.741 10.0698 505.738 10.078 505.735C10.0864 505.733 10.0944 505.729 10.1028 505.726C10.1112 505.724 10.1196 505.72 10.128 505.717C10.1364 505.715 10.1444 505.711 10.1528 505.709C10.1612 505.706 10.1692 505.702 10.1776 505.7C10.1859 505.697 10.1939 505.693 10.2023 505.691C10.2111 505.688 10.2192 505.685 10.2276 505.682C10.236 505.68 10.244 505.676 10.2524 505.673C10.2607 505.67 10.2694 505.668 10.2779 505.666C10.2862 505.663 10.2946 505.66 10.3031 505.658C10.3114 505.655 10.3197 505.652 10.3282 505.65C10.3334 505.649 10.3382 505.647 10.343 505.646C10.3513 505.643 10.3596 505.64 10.3682 505.638C10.3764 505.635 10.3848 505.633 10.3933 505.63C10.4019 505.627 10.4103 505.625 10.4188 505.623C10.4271 505.62 10.4355 505.617 10.444 505.615C10.4524 505.612 10.4615 505.611 10.4699 505.608C10.4783 505.606 10.4869 505.604 10.4953 505.602C10.5037 505.599 10.5124 505.598 10.5208 505.595C10.5292 505.592 10.5383 505.591 10.5467 505.588C10.5551 505.586 10.5638 505.585 10.5722 505.582C10.5806 505.579 10.5893 505.578 10.5981 505.575C10.6065 505.573 10.615 505.572 10.6233 505.569C10.6321 505.567 10.6409 505.565 10.6494 505.563C10.6581 505.562 10.6665 505.559 10.6751 505.558C10.6839 505.556 10.6923 505.554 10.7009 505.552C10.7095 505.55 10.718 505.548 10.7266 505.546C10.7358 505.545 10.7439 505.543 10.7525 505.541C10.7615 505.539 10.77 505.537 10.7787 505.535C10.7875 505.534 10.796 505.532 10.8047 505.53C10.8133 505.528 10.8219 505.527 10.8305 505.525C10.8393 505.524 10.8479 505.522 10.8565 505.52C10.8653 505.519 10.8739 505.517 10.8825 505.515C10.8913 505.514 10.8999 505.512 10.9086 505.511C10.9173 505.509 10.926 505.508 10.9348 505.506C10.9431 505.505 10.9521 505.503 10.9605 505.502C10.9692 505.501 10.978 505.499 10.9867 505.498C10.9953 505.496 11.0042 505.495 11.013 505.494C11.0216 505.492 11.0305 505.491 11.0392 505.49C11.0476 505.488 11.0563 505.487 11.0652 505.486C11.0739 505.485 11.0828 505.484 11.0915 505.482C11.1004 505.481 11.1087 505.48 11.1175 505.479C11.1264 505.478 11.1351 505.477 11.144 505.476C11.1528 505.475 11.1612 505.473 11.1701 505.472C11.1789 505.471 11.1877 505.47 11.1965 505.469C11.205 505.468 11.2139 505.467 11.2227 505.466C11.2312 505.465 11.2401 505.465 11.249 505.464C11.2574 505.463 11.2663 505.462 11.2753 505.461C11.2842 505.46 11.2926 505.459 11.3016 505.459C11.3105 505.458 11.3191 505.457 11.3279 505.456C11.3369 505.456 11.3454 505.455 11.3544 505.455C11.3633 505.454 11.3719 505.453 11.3808 505.453C11.3897 505.452 11.3983 505.451 11.4073 505.451C11.4158 505.45 11.4248 505.449 11.4333 505.449C11.4423 505.448 11.4509 505.448 11.4599 505.447C11.4685 505.447 11.4775 505.446 11.4866 505.446C11.4952 505.446 11.5038 505.445 11.5128 505.445C11.5218 505.444 11.5304 505.444 11.5391 505.443C11.5482 505.443 11.5568 505.443 11.5654 505.442C11.5745 505.442 11.5832 505.442 11.5918 505.442C11.6009 505.442 11.6095 505.441 11.6186 505.441C11.6273 505.441 11.636 505.441 11.6452 505.441C11.6539 505.441 11.6626 505.441 11.6716 505.44C11.6803 505.44 11.689 505.44 11.6977 505.44C11.7064 505.44 11.7155 505.44 11.7242 505.44C11.7331 505.44 11.7418 505.44 11.7505 505.44C11.7596 505.44 11.7685 505.44 11.7772 505.44C11.7859 505.44 11.7947 505.44 11.8034 505.44C11.8123 505.441 11.8215 505.441 11.8298 505.441C11.8387 505.441 11.8479 505.442 11.8566 505.442C11.8654 505.442 11.8743 505.442 11.8831 505.443C11.8919 505.443 11.9008 505.443 11.9096 505.444C11.9179 505.444 11.9268 505.444 11.9357 505.445C11.9446 505.445 11.9534 505.446 11.9622 505.446C11.9711 505.446 11.9799 505.447 11.9889 505.447C11.9973 505.448 12.0061 505.448 12.0151 505.449C12.0239 505.449 12.0324 505.45 12.0413 505.451C12.0503 505.451 12.0591 505.452 12.0675 505.452C12.0765 505.453 12.0854 505.454 12.094 505.455C12.1028 505.455 12.1118 505.456 12.1204 505.457C12.1293 505.457 12.1383 505.458 12.1468 505.459C12.1558 505.46 12.1643 505.461 12.1733 505.461C12.1819 505.462 12.1908 505.463 12.1994 505.464C12.2079 505.465 12.217 505.466 12.226 505.467C12.2345 505.467 12.2435 505.468 12.2522 505.469C12.2607 505.47 12.2694 505.472 12.2785 505.473C12.287 505.474 12.296 505.474 12.3047 505.476C12.3134 505.477 12.322 505.478 12.331 505.479C12.3397 505.48 12.3484 505.482 12.3569 505.482C12.3656 505.484 12.3747 505.485 12.3834 505.486C12.392 505.487 12.4007 505.489 12.4094 505.49C12.4181 505.491 12.4267 505.492 12.4354 505.494C12.4441 505.495 12.4532 505.496 12.4616 505.498C12.4703 505.499 12.4793 505.5 12.4878 505.502C12.4964 505.503 12.5051 505.505 12.5139 505.506C12.5227 505.508 12.5314 505.509 12.5402 505.511C12.5485 505.512 12.5573 505.514 12.5661 505.516C12.5748 505.517 12.5836 505.519 12.5924 505.52C12.6006 505.522 12.6094 505.523 12.6178 505.525C12.6266 505.527 12.6355 505.529 12.6439 505.53C12.6527 505.532 12.6611 505.534 12.6699 505.535C12.6787 505.537 12.6871 505.539 12.6959 505.541C12.7044 505.543 12.7132 505.544 12.7216 505.546C12.73 505.548 12.7389 505.55 12.7474 505.552C12.7562 505.554 12.7646 505.556 12.7736 505.558C12.7816 505.56 12.7905 505.562 12.7989 505.564C12.8078 505.566 12.8163 505.568 12.8248 505.57C12.8333 505.572 12.8418 505.574 12.8507 505.576C12.8591 505.578 12.8677 505.58 12.8762 505.582C12.8847 505.585 12.8932 505.587 12.9018 505.589C12.9103 505.591 12.9188 505.593 12.9273 505.595C12.9359 505.598 12.9445 505.6 12.953 505.602C12.9615 505.605 12.9701 505.607 12.9787 505.609C12.9868 505.612 12.9954 505.614 13.004 505.616C13.0125 505.619 13.0208 505.621 13.0293 505.624C13.038 505.626 13.0461 505.628 13.0547 505.631C13.0634 505.634 13.0719 505.636 13.0801 505.639C13.0888 505.641 13.0969 505.643 13.1052 505.646C13.1138 505.649 13.1225 505.651 13.1307 505.654C13.139 505.657 13.1476 505.659 13.1561 505.662C13.1645 505.665 13.1727 505.667 13.181 505.67C13.1896 505.673 13.1979 505.675 13.2062 505.679C13.2149 505.681 13.2231 505.684 13.2314 505.687C13.2398 505.69 13.248 505.692 13.2562 505.695C13.2646 505.698 13.2729 505.701 13.2811 505.704C13.2899 505.707 13.2983 505.71 13.3061 505.713C13.3149 505.716 13.3227 505.718 13.3311 505.721C13.3395 505.725 13.3478 505.728 13.3561 505.73C13.3644 505.733 13.3728 505.737 13.3808 505.74C13.3891 505.743 13.3975 505.746 13.4054 505.749C13.4139 505.752 13.4221 505.755 13.4302 505.759C13.4384 505.761 13.4468 505.765 13.4549 505.768C13.4633 505.771 13.4712 505.775 13.4796 505.778C13.4877 505.781 13.4957 505.784 13.504 505.788C13.5121 505.791 13.5205 505.794 13.5286 505.798C13.5366 505.801 13.5445 505.804 13.553 505.808C13.561 505.811 13.5691 505.815 13.5771 505.818C13.5852 505.822 13.5931 505.825 13.6012 505.829C13.6097 505.832 13.6178 505.836 13.6258 505.839C13.6339 505.843 13.6421 505.847 13.65 505.85C13.6577 505.854 13.6662 505.857 13.6743 505.861C13.682 505.864 13.6901 505.868 13.6982 505.872C13.7063 505.875 13.714 505.879 13.7221 505.883C13.7302 505.886 13.7379 505.89 13.7461 505.894C13.7542 505.898 13.7618 505.901 13.7701 505.906C13.7778 505.909 13.7859 505.913 13.7937 505.917C13.8018 505.921 13.8095 505.924 13.8173 505.929C13.8254 505.932 13.8332 505.936 13.8414 505.94C13.8491 505.944 13.8569 505.948 13.8646 505.952C13.8724 505.956 13.8806 505.96 13.8883 505.964C13.8961 505.968 13.9039 505.972 13.9117 505.976C13.9194 505.98 13.9274 505.985 13.9352 505.989C13.9429 505.993 13.9507 505.997 13.9585 506.001C13.9659 506.005 13.9739 506.01 13.9816 506.013C13.9895 506.018 13.9973 506.022 14.0047 506.026C14.0125 506.031 14.0204 506.035 14.0278 506.039C14.0357 506.044 14.0435 506.048 14.0511 506.052C14.0589 506.057 14.0663 506.061 14.0742 506.065C14.0816 506.07 14.0895 506.074 14.097 506.078C14.1044 506.083 14.1123 506.087 14.1198 506.092C14.1273 506.096 14.1347 506.1 14.1426 506.105C14.1502 506.11 14.1577 506.114 14.1651 506.119C14.1727 506.123 14.1802 506.128 14.1878 506.133C14.1953 506.137 14.2027 506.142 14.2102 506.146C14.2178 506.151 14.2253 506.156 14.2329 506.16C14.2404 506.165 14.2475 506.17 14.2551 506.174C14.2626 506.179 14.2701 506.184 14.2773 506.189C14.2848 506.193 14.2924 506.198 14.2996 506.203C14.3072 506.208 14.3143 506.213 14.3218 506.217C14.3291 506.222 14.3366 506.227 14.3438 506.232C14.3509 506.237 14.3586 506.242 14.3657 506.246C14.373 506.252 14.3801 506.256 14.3878 506.262C14.3949 506.266 14.4022 506.272 14.4093 506.276C14.4166 506.281 14.4237 506.286 14.431 506.291C14.4386 506.297 14.4459 506.302 14.4527 506.307C14.4599 506.312 14.4671 506.317 14.4744 506.322C14.4815 506.327 14.4884 506.332 14.4957 506.338C14.5029 506.343 14.5102 506.348 14.517 506.353C14.5242 506.358 14.5316 506.364 14.5383 506.368C14.5457 506.374 14.5524 506.379 14.5598 506.385C14.5667 506.39 14.5739 506.395 14.5808 506.4C14.5876 506.406 14.5945 506.411 14.6018 506.416C14.6087 506.422 14.6156 506.427 14.6229 506.432C14.6298 506.438 14.6367 506.443 14.6436 506.449C14.6504 506.454 14.6574 506.46 14.6643 506.465C14.6713 506.471 14.6781 506.476 14.6851 506.482C14.6916 506.487 14.6984 506.493 14.7054 506.498C14.7123 506.504 14.7189 506.509 14.7258 506.515C14.7327 506.52 14.7397 506.526 14.7463 506.532C14.7531 506.537 14.7597 506.543 14.7667 506.549C14.7732 506.554 14.7801 506.56 14.7867 506.566C14.7933 506.572 14.8003 506.577 14.8069 506.583C14.8135 506.589 14.8199 506.594 14.8269 506.6C14.8335 506.606 14.8401 506.612 14.8467 506.618C14.8532 506.623 14.8598 506.629 14.8664 506.635C14.873 506.641 14.8796 506.647 14.8863 506.653C14.8929 506.659 14.8991 506.665 14.9056 506.671C14.9122 506.676 14.9188 506.682 14.9255 506.689C14.9317 506.694 14.9383 506.7 14.9445 506.706C14.9512 506.713 14.9573 506.718 14.9639 506.724C14.9701 506.73 14.9768 506.736 14.983 506.742C14.9897 506.749 14.9959 506.755 15.0022 506.761C15.0088 506.767 15.0147 506.773 15.0209 506.779C15.0276 506.785 15.0338 506.791 15.0401 506.798C15.0463 506.804 15.0526 506.81 15.0589 506.816C15.0651 506.822 15.0714 506.829 15.0777 506.835C15.0835 506.841 15.0898 506.847 15.0961 506.854C15.1024 506.86 15.1087 506.867 15.1145 506.873C15.1208 506.879 15.1267 506.885 15.133 506.892C15.1392 506.898 15.1452 506.905 15.151 506.911C15.1573 506.917 15.1632 506.924 15.1695 506.93C15.1754 506.936 15.1813 506.943 15.1872 506.949C15.1931 506.956 15.1994 506.962 15.2054 506.969C15.2113 506.975 15.2172 506.982 15.2231 506.988C15.2291 506.995 15.235 507.001 15.2409 507.008C15.2464 507.014 15.2523 507.021 15.2582 507.027C15.2643 507.034 15.2702 507.041 15.2761 507.047C15.2817 507.054 15.2872 507.061 15.2931 507.067C15.299 507.074 15.3047 507.081 15.3106 507.087C15.3161 507.094 15.3221 507.101 15.3276 507.107C15.3331 507.114 15.3392 507.121 15.3448 507.128C15.3503 507.134 15.3559 507.141 15.3614 507.148C15.3675 507.155 15.373 507.161 15.3786 507.168C15.3841 507.175 15.3896 507.182 15.3949 507.189C15.4009 507.196 15.406 507.202 15.4116 507.209C15.4171 507.216 15.4228 507.223 15.428 507.23C15.4336 507.237 15.4391 507.244 15.4444 507.251C15.45 507.258 15.4556 507.265 15.4607 507.271C15.466 507.278 15.4716 507.285 15.4768 507.293C15.4825 507.3 15.4876 507.306 15.4928 507.313C15.498 507.321 15.5037 507.327 15.5088 507.334C15.514 507.341 15.5194 507.349 15.5246 507.356C15.5297 507.363 15.5349 507.37 15.5402 507.377C15.545 507.384 15.5506 507.391 15.5559 507.398C15.5607 507.405 15.5659 507.413 15.5707 507.42C15.5761 507.427 15.5812 507.434 15.586 507.441C15.5914 507.449 15.5966 507.456 15.6015 507.463C15.6067 507.47 15.6115 507.478 15.6163 507.485C15.6216 507.492 15.6264 507.499 15.6314 507.507C15.6362 507.514 15.6414 507.521 15.6463 507.528C15.6511 507.536 15.656 507.543 15.6609 507.55C15.6657 507.558 15.6705 507.565 15.6755 507.573C15.6803 507.58 15.6852 507.587 15.6897 507.595C15.6945 507.602 15.6994 507.609 15.7043 507.617C15.7092 507.624 15.7136 507.631 15.718 507.639C15.723 507.646 15.7274 507.654 15.7324 507.661C15.7368 507.669 15.7418 507.676 15.7462 507.684C15.7512 507.691 15.7556 507.699 15.76 507.706C15.7646 507.714 15.769 507.721 15.774 507.729C15.7784 507.736 15.7829 507.744 15.7874 507.751C15.7919 507.759 15.7964 507.767 15.8009 507.774C15.8051 507.782 15.8095 507.79 15.8141 507.797C15.8186 507.805 15.8227 507.812 15.8272 507.82C15.8316 507.828 15.8358 507.835 15.8404 507.843C15.8444 507.851 15.8489 507.858 15.853 507.866C15.8575 507.874 15.8617 507.882 15.8658 507.889C15.8703 507.897 15.8744 507.905 15.8786 507.913C15.8826 507.92 15.8868 507.928 15.8909 507.936C15.895 507.943 15.8995 507.951 15.9033 507.959C15.9074 507.967 15.9116 507.975 15.9156 507.982C15.9198 507.99 15.9239 507.998 15.9277 508.006C15.9318 508.014 15.9359 508.021 15.9396 508.029C15.9438 508.037 15.9475 508.045 15.9517 508.053C15.9555 508.061 15.9595 508.069 15.9632 508.077C15.967 508.085 15.9712 508.093 15.9749 508.101C15.9787 508.109 15.9827 508.116 15.9865 508.124C15.9902 508.132 15.994 508.14 15.9977 508.148C16.0015 508.156 16.0052 508.164 16.009 508.172C16.0128 508.18 16.0161 508.188 16.0199 508.196C16.0236 508.204 16.0273 508.212 16.0307 508.22C16.0345 508.228 16.0381 508.236 16.0415 508.244C16.0453 508.252 16.0486 508.26 16.0524 508.268C16.0557 508.276 16.0591 508.284 16.0628 508.292C16.0662 508.3 16.0695 508.309 16.0729 508.317C16.0767 508.325 16.08 508.333 16.0834 508.341C16.0869 508.349 16.0902 508.358 16.0934 508.365C16.0969 508.374 16.1002 508.382 16.1036 508.39C16.107 508.398 16.11 508.406 16.1133 508.415C16.1167 508.423 16.1196 508.431 16.123 508.439C16.1264 508.447 16.1293 508.455 16.1327 508.464C16.1357 508.472 16.139 508.48 16.1419 508.488C16.145 508.497 16.148 508.505 16.1513 508.513C16.1543 508.521 16.1573 508.53 16.1602 508.538C16.1632 508.546 16.1665 508.554 16.1691 508.563C16.1724 508.571 16.175 508.579 16.1784 508.587C16.1814 508.596 16.184 508.604 16.187 508.612C16.1899 508.621 16.1929 508.629 16.1954 508.637C16.1984 508.646 16.2015 508.654 16.204 508.663C16.207 508.671 16.2096 508.679 16.2125 508.687C16.2151 508.696 16.2176 508.704 16.2206 508.712C16.2233 508.721 16.2261 508.729 16.2288 508.738C16.2313 508.746 16.2339 508.755 16.2365 508.763ZM-17.0531 525.602L-20.7743 513.441C-22.1529 513.844 -22.9919 514.784 -23.4979 515.873L-20.6825 525.075C-19.6533 525.696 -18.4291 526.015 -17.0531 525.602ZM-23.8986 515.995C-23.8986 515.995 -30.6679 512.972 -36.561 517.356C-36.561 517.356 -32.2763 516.623 -30.2866 517.512C-26.7936 519.072 -36.561 517.356 -42.302 526.657C-32.3351 531.169 -25.195 524.297 -27.2184 527.54C-28.3711 529.387 -32.3351 531.169 -32.3351 531.169C-24.9941 531.517 -21.0717 525.235 -21.0717 525.235L-23.8986 515.995Z" fill="black"/>
<path d="M141.029 410.111C140.284 410.324 139.537 410.527 138.786 410.72L133.71 415.903C121.29 428.583 102.961 435.067 84.1762 431.567C65.3788 428.087 50.6004 415.437 43.5739 399.127L40.7138 392.488C33.714 387.539 26.8858 381.014 23.347 373.035L23.3441 373.028C21.5214 368.887 20.5561 364.168 21.2553 359.475L21.2563 359.469C22.1459 353.606 25.5511 348.452 29.8672 344.775C35.7074 339.788 43.161 337.232 50.1706 335.776C50.9232 335.619 51.6596 335.482 52.3655 335.35L52.3777 335.348L60.0458 333.921L57.4697 336.598C62.473 332.056 68.2982 328.399 74.6606 325.99C92.516 319.212 113.806 322.556 128.718 334.474C134.906 339.42 139.892 345.758 143.416 352.832M141.029 410.111C141.028 410.111 141.028 410.112 141.027 410.112L140.339 407.708L141.029 410.111ZM141.029 410.111C148.402 408.007 156.252 404.575 162.013 398.786M162.013 398.786C164.07 396.734 165.904 394.274 167.222 391.456M162.013 398.786C162.014 398.785 162.015 398.784 162.016 398.783L160.243 397.019M162.013 398.786C162.011 398.788 162.01 398.789 162.009 398.79L160.243 397.019M167.222 391.456C169.84 385.884 169.978 379.558 167.86 373.866C165.353 367.128 160.42 361.863 155.145 357.746C152.911 355.998 150.66 354.502 148.467 353.176L141.885 349.198L143.416 352.832M167.222 391.456L164.958 390.396M167.222 391.456C167.222 391.457 167.221 391.458 167.221 391.46L164.958 390.396M143.416 352.832L144.87 356.284C146.142 359.305 147.135 362.442 147.856 365.679L147.999 365.665L150.301 365.155L147.992 365.634C147.26 362.425 146.249 359.277 144.976 356.239C144.493 355.087 143.973 353.95 143.416 352.832ZM164.958 390.396C163.777 392.917 162.124 395.144 160.243 397.019M164.958 390.396L160.243 397.019M46.7869 349.624L46.4021 349.815C43.0566 351.474 39.6749 353.768 37.719 356.471L37.715 356.477C35.069 360.114 35.7562 364.501 38.7304 368.633L46.7869 349.624ZM46.7869 349.624C45.3888 351.969 44.1614 354.417 43.1222 356.943C43.0066 357.222 42.8813 357.52 42.7497 357.832C41.9929 359.628 41.0284 361.916 40.5196 364.192L46.7869 349.624ZM146.551 390.8C147.836 390.153 149.057 389.424 150.196 388.6C152.626 386.842 154.392 384.483 154.799 381.985L154.8 381.979C155.424 378.209 153.233 374.179 150.302 370.542C149.83 369.972 149.348 369.413 148.859 368.875L148.58 368.567C149.533 374.082 149.659 379.736 148.866 385.292L148.866 385.294C148.705 386.416 148.452 388 147.588 389.448L146.551 390.8ZM146.551 390.8C146.935 390.402 147.285 389.955 147.587 389.45L146.551 390.8ZM154.207 455.811C163.445 453.673 169.202 444.459 167.058 435.226C164.914 425.994 155.684 420.248 146.446 422.386C137.208 424.524 131.451 433.738 133.595 442.971C135.739 452.203 144.969 457.949 154.207 455.811ZM179.401 422.059C185.175 420.723 188.775 414.963 187.434 409.189C186.094 403.416 180.323 399.825 174.548 401.161C168.774 402.498 165.174 408.258 166.515 414.031C167.855 419.804 173.627 423.395 179.401 422.059Z" fill="black" stroke="white" stroke-width="5"/>
</svg>
